StickNoBills-Regular.ufo
<glyph name="exclam" format="1">
  <advance width="329"/>
  <unicode hex="0021"/>
  <outline>
    <contour>
      <point x="100" y="166" type="line"/>
      <point x="100" y="700" type="line"/>
      <point x="229" y="700" type="line"/>
      <point x="229" y="166" type="line"/>
    </contour>
    <contour>
      <point x="88" y="53" type="curve" smooth="yes"/>
      <point x="88" y="95"/>
      <point x="121" y="129"/>
      <point x="163" y="129" type="curve" smooth="yes"/>
      <point x="205" y="129"/>
      <point x="238" y="95"/>
      <point x="238" y="53" type="curve" smooth="yes"/>
      <point x="238" y="11"/>
      <point x="205" y="-22"/>
      <point x="163" y="-22" type="curve" smooth="yes"/>
      <point x="121" y="-22"/>
      <point x="88" y="11"/>
    </contour>
  </outline>
</glyph>
<glyph name="quotedbl" format="1">
  <advance width="407"/>
  <unicode hex="0022"/>
  <outline>
    <contour>
      <point x="357" y="465" type="line"/>
      <point x="230" y="465" type="line"/>
      <point x="230" y="736" type="line"/>
      <point x="357" y="736" type="line"/>
    </contour>
    <contour>
      <point x="177" y="465" type="line"/>
      <point x="50" y="465" type="line"/>
      <point x="50" y="736" type="line"/>
      <point x="177" y="736" type="line"/>
    </contour>
  </outline>
</glyph>
<glyph name="ampersand" format="1">
  <advance width="760"/>
  <unicode hex="0026"/>
  <outline>
    <contour>
      <point x="307" y="576" type="line"/>
      <point x="307" y="576"/>
      <point x="281" y="567"/>
      <point x="281" y="534" type="curve" smooth="yes"/>
      <point x="281" y="499"/>
      <point x="301" y="493"/>
      <point x="307" y="487" type="curve"/>
      <point x="307" y="267" type="line"/>
      <point x="283" y="295" type="line"/>
      <point x="241" y="272"/>
      <point x="207" y="249"/>
      <point x="207" y="202" type="curve" smooth="yes"/>
      <point x="207" y="158"/>
      <point x="249" y="133"/>
      <point x="307" y="133" type="curve"/>
      <point x="307" y="1" type="line"/>
      <point x="132" y="1"/>
      <point x="50" y="85"/>
      <point x="50" y="212" type="curve" smooth="yes"/>
      <point x="50" y="304"/>
      <point x="131" y="368"/>
      <point x="201" y="402" type="curve"/>
      <point x="177" y="426"/>
      <point x="144" y="484"/>
      <point x="144" y="526" type="curve" smooth="yes"/>
      <point x="144" y="619"/>
      <point x="203" y="679"/>
      <point x="307" y="700" type="curve"/>
    </contour>
    <contour>
      <point x="367" y="698" type="line"/>
      <point x="474" y="679"/>
      <point x="527" y="616"/>
      <point x="527" y="518" type="curve" smooth="yes"/>
      <point x="527" y="443"/>
      <point x="464" y="384"/>
      <point x="413" y="359" type="curve"/>
      <point x="481" y="278" type="line"/>
      <point x="493" y="297"/>
      <point x="501" y="318"/>
      <point x="505" y="343" type="curve"/>
      <point x="644" y="343" type="line"/>
      <point x="634" y="272"/>
      <point x="609" y="225"/>
      <point x="570" y="178" type="curve"/>
      <point x="713" y="0" type="line"/>
      <point x="519" y="0" type="line"/>
      <point x="467" y="70" type="line"/>
      <point x="443" y="48"/>
      <point x="402" y="24"/>
      <point x="367" y="14" type="curve"/>
      <point x="367" y="166" type="line"/>
      <point x="374" y="171"/>
      <point x="375" y="172"/>
      <point x="382" y="178" type="curve"/>
      <point x="367" y="196" type="line"/>
      <point x="367" y="484" type="line"/>
      <point x="378" y="493"/>
      <point x="394" y="502"/>
      <point x="394" y="531" type="curve" smooth="yes"/>
      <point x="394" y="555"/>
      <point x="390" y="568"/>
      <point x="367" y="580" type="curve"/>
    </contour>
  </outline>
</glyph>
<glyph name="quotesingle" format="1">
  <advance width="187"/>
  <unicode hex="0027"/>
  <outline>
    <contour>
      <point x="157" y="465" type="line"/>
      <point x="30" y="465" type="line"/>
      <point x="30" y="736" type="line"/>
      <point x="157" y="736" type="line"/>
    </contour>
  </outline>
</glyph>
<glyph name="parenleft" format="1">
  <advance width="262"/>
  <unicode hex="0028"/>
  <outline>
    <contour>
      <point x="212" y="735" type="curve"/>
      <point x="213" y="648" type="line"/>
      <point x="174" y="625"/>
      <point x="154" y="593"/>
      <point x="153" y="521" type="curve" smooth="yes"/>
      <point x="153" y="208" type="line" smooth="yes"/>
      <point x="153" y="206"/>
      <point x="153" y="204"/>
      <point x="153" y="202" type="curve" smooth="yes"/>
      <point x="153" y="104"/>
      <point x="178" y="73"/>
      <point x="213" y="51" type="curve"/>
      <point x="213" y="-37" type="line"/>
      <point x="71" y="22"/>
      <point x="50" y="93"/>
      <point x="50" y="189" type="curve"/>
      <point x="50" y="510" type="line"/>
      <point x="50" y="652"/>
      <point x="113" y="696"/>
    </contour>
  </outline>
</glyph>
<glyph name="asterisk" format="1">
  <advance width="394"/>
  <unicode hex="002A"/>
  <outline>
    <contour>
      <point x="231" y="478" type="line"/>
      <point x="160" y="478" type="line"/>
      <point x="160" y="564" type="line"/>
      <point x="92" y="517" type="line"/>
      <point x="51" y="574" type="line"/>
      <point x="138" y="633" type="line"/>
      <point x="50" y="691" type="line"/>
      <point x="92" y="748" type="line"/>
      <point x="160" y="704" type="line"/>
      <point x="160" y="785" type="line"/>
      <point x="231" y="785" type="line"/>
      <point x="231" y="702" type="line"/>
      <point x="302" y="748" type="line"/>
      <point x="344" y="691" type="line"/>
      <point x="256" y="632" type="line"/>
      <point x="343" y="572" type="line"/>
      <point x="302" y="515" type="line"/>
      <point x="231" y="565" type="line"/>
    </contour>
  </outline>
</glyph>
<glyph name="comma" format="1">
  <advance width="264"/>
  <unicode hex="002C"/>
  <outline>
    <contour>
      <point x="177" y="-58" type="line"/>
      <point x="50" y="-58" type="line"/>
      <point x="87" y="129" type="line"/>
      <point x="214" y="129" type="line"/>
    </contour>
  </outline>
</glyph>
<glyph name="hyphen" format="1">
  <advance width="516"/>
  <unicode hex="002D"/>
  <outline>
    <contour>
      <point x="416" y="357" type="line"/>
      <point x="416" y="230" type="line"/>
      <point x="100" y="230" type="line"/>
      <point x="100" y="357" type="line"/>
    </contour>
  </outline>
</glyph>
<glyph name="period" format="1">
  <advance width="250"/>
  <unicode hex="002E"/>
  <outline>
    <contour>
      <point x="50" y="53" type="curve" smooth="yes"/>
      <point x="50" y="95"/>
      <point x="83" y="129"/>
      <point x="125" y="129" type="curve" smooth="yes"/>
      <point x="167" y="129"/>
      <point x="200" y="95"/>
      <point x="200" y="53" type="curve" smooth="yes"/>
      <point x="200" y="11"/>
      <point x="167" y="-22"/>
      <point x="125" y="-22" type="curve" smooth="yes"/>
      <point x="83" y="-22"/>
      <point x="50" y="11"/>
    </contour>
  </outline>
</glyph>
<glyph name="one" format="1">
  <advance width="309"/>
  <unicode hex="0031"/>
  <outline>
    <contour>
      <point x="99" y="499" type="line"/>
      <point x="43" y="444" type="line"/>
      <point x="43" y="645" type="line"/>
      <point x="99" y="701" type="line"/>
      <point x="104" y="701" type="line"/>
      <point x="226" y="701" type="line"/>
      <point x="226" y="-0" type="line"/>
      <point x="99" y="-0" type="line"/>
    </contour>
  </outline>
</glyph>
<glyph name="one" format="1">
  <advance width="266"/>
  <unicode hex="0031"/>
  <outline>
    <contour>
      <point x="106" y="499" type="line"/>
      <point x="30" y="439" type="line"/>
      <point x="30" y="640" type="line"/>
      <point x="106" y="699" type="line"/>
      <point x="236" y="699" type="line"/>
      <point x="236" y="0" type="line"/>
      <point x="106" y="0" type="line"/>
    </contour>
  </outline>
</glyph>
<glyph name="two" format="1">
  <advance width="515"/>
  <unicode hex="0032"/>
  <outline>
    <contour>
      <point x="464" y="127" type="line"/>
      <point x="464" y="0" type="line"/>
      <point x="63" y="0" type="line"/>
      <point x="63" y="127" type="line"/>
    </contour>
    <contour>
      <point x="209" y="703" type="curve"/>
      <point x="209" y="577" type="line" smooth="yes"/>
      <point x="208" y="577"/>
      <point x="161" y="561"/>
      <point x="161" y="499" type="curve"/>
      <point x="43" y="524" type="line"/>
      <point x="52" y="608"/>
      <point x="114" y="691"/>
    </contour>
    <contour>
      <point x="264" y="578" type="curve"/>
      <point x="264" y="704" type="line"/>
      <point x="266" y="704"/>
      <point x="269" y="704"/>
      <point x="271" y="704" type="curve" smooth="yes"/>
      <point x="425" y="704"/>
      <point x="471" y="573"/>
      <point x="472" y="500" type="curve" smooth="yes"/>
      <point x="472" y="499"/>
      <point x="472" y="498"/>
      <point x="472" y="497" type="curve" smooth="yes"/>
      <point x="472" y="393"/>
      <point x="411" y="364"/>
      <point x="352" y="319" type="curve" smooth="yes"/>
      <point x="281" y="265"/>
      <point x="247" y="235"/>
      <point x="210" y="186" type="curve"/>
      <point x="70" y="186" type="line"/>
      <point x="135" y="306"/>
      <point x="232" y="363"/>
      <point x="262" y="388" type="curve" smooth="yes"/>
      <point x="306" y="424"/>
      <point x="353" y="438"/>
      <point x="354" y="500" type="curve" smooth="yes"/>
      <point x="354" y="501"/>
      <point x="354" y="501"/>
      <point x="354" y="502" type="curve" smooth="yes"/>
      <point x="354" y="552"/>
      <point x="319" y="576"/>
    </contour>
    <contour>
      <point x="209" y="577" type="line" smooth="yes"/>
      <point x="209" y="577"/>
      <point x="209" y="577"/>
      <point x="209" y="577" type="curve" smooth="yes"/>
      <point x="209" y="577"/>
      <point x="209" y="577"/>
      <point x="209" y="577" type="curve" smooth="yes"/>
    </contour>
  </outline>
</glyph>
<glyph name="two" format="1">
  <advance width="480"/>
  <unicode hex="0032"/>
  <outline>
    <contour>
      <point x="447" y="127" type="line"/>
      <point x="447" y="0" type="line"/>
      <point x="43" y="0" type="line"/>
      <point x="43" y="127" type="line"/>
    </contour>
    <contour>
      <point x="192" y="703" type="curve"/>
      <point x="192" y="577" type="line" smooth="yes"/>
      <point x="191" y="577"/>
      <point x="144" y="561"/>
      <point x="144" y="499" type="curve"/>
      <point x="26" y="524" type="line"/>
      <point x="35" y="608"/>
      <point x="97" y="691"/>
    </contour>
    <contour>
      <point x="247" y="578" type="curve"/>
      <point x="247" y="704" type="line"/>
      <point x="249" y="704"/>
      <point x="252" y="704"/>
      <point x="254" y="704" type="curve" smooth="yes"/>
      <point x="408" y="704"/>
      <point x="454" y="578"/>
      <point x="455" y="501" type="curve" smooth="yes"/>
      <point x="455" y="500"/>
      <point x="455" y="499"/>
      <point x="455" y="498" type="curve" smooth="yes"/>
      <point x="455" y="394"/>
      <point x="405" y="362"/>
      <point x="344" y="319" type="curve" smooth="yes"/>
      <point x="273" y="269"/>
      <point x="235" y="239"/>
      <point x="201" y="186" type="curve"/>
      <point x="49" y="186" type="line"/>
      <point x="109" y="309"/>
      <point x="207" y="363"/>
      <point x="237" y="388" type="curve" smooth="yes"/>
      <point x="280" y="425"/>
      <point x="331" y="437"/>
      <point x="332" y="499" type="curve" smooth="yes"/>
      <point x="332" y="500"/>
      <point x="332" y="500"/>
      <point x="332" y="501" type="curve" smooth="yes"/>
      <point x="332" y="551"/>
      <point x="302" y="576"/>
    </contour>
    <contour>
      <point x="192" y="577" type="line" smooth="yes"/>
    </contour>
  </outline>
</glyph>
<glyph name="four" format="1">
  <advance width="483"/>
  <unicode hex="0034"/>
  <outline>
    <contour>
      <point x="457" y="272" type="line"/>
      <point x="457" y="145" type="line"/>
      <point x="403" y="145" type="line"/>
      <point x="403" y="0" type="line"/>
      <point x="273" y="0" type="line"/>
      <point x="273" y="701" type="line"/>
      <point x="403" y="701" type="line"/>
      <point x="403" y="272" type="line"/>
    </contour>
    <contour>
      <point x="216" y="272" type="line"/>
      <point x="216" y="145" type="line"/>
      <point x="26" y="145" type="line"/>
      <point x="26" y="272" type="line"/>
      <point x="216" y="598" type="line"/>
      <point x="216" y="351" type="line"/>
      <point x="170" y="272" type="line"/>
    </contour>
  </outline>
</glyph>
<glyph name="five" format="1">
  <advance width="492"/>
  <unicode hex="0035"/>
  <outline>
    <contour>
      <point x="409" y="574" type="line"/>
      <point x="171" y="573" type="line"/>
      <point x="159" y="442" type="line"/>
      <point x="172" y="445"/>
      <point x="187" y="447"/>
      <point x="204" y="447" type="curve"/>
      <point x="204" y="324" type="line"/>
      <point x="170" y="321"/>
      <point x="148" y="301"/>
      <point x="136" y="286" type="curve"/>
      <point x="26" y="354" type="line"/>
      <point x="55" y="700" type="line"/>
      <point x="409" y="700" type="line"/>
    </contour>
    <contour>
      <point x="258" y="447" type="line"/>
      <point x="401" y="444"/>
      <point x="466" y="333"/>
      <point x="466" y="223" type="curve" smooth="yes"/>
      <point x="466" y="82"/>
      <point x="363" y="2"/>
      <point x="258" y="0" type="curve"/>
      <point x="258" y="126" type="line"/>
      <point x="307" y="135"/>
      <point x="338" y="174"/>
      <point x="338" y="224" type="curve" smooth="yes"/>
      <point x="338" y="280"/>
      <point x="296" y="319"/>
      <point x="258" y="324" type="curve"/>
    </contour>
    <contour>
      <point x="131" y="175" type="line"/>
      <point x="147" y="144"/>
      <point x="177" y="131"/>
      <point x="204" y="126" type="curve"/>
      <point x="204" y="0" type="line"/>
      <point x="120" y="0"/>
      <point x="60" y="46"/>
      <point x="28" y="107" type="curve"/>
    </contour>
  </outline>
</glyph>
<glyph name="six" format="1">
  <advance width="497"/>
  <unicode hex="0036"/>
  <outline>
    <contour>
      <point x="228" y="697" type="curve"/>
      <point x="228" y="572" type="line"/>
      <point x="165" y="565"/>
      <point x="150" y="448"/>
      <point x="150" y="399" type="curve"/>
      <point x="169" y="414"/>
      <point x="198" y="425"/>
      <point x="228" y="425" type="curve"/>
      <point x="228" y="307" type="line"/>
      <point x="227" y="307" type="line"/>
      <point x="207" y="302"/>
      <point x="160" y="286"/>
      <point x="160" y="209" type="curve" smooth="yes"/>
      <point x="160" y="170"/>
      <point x="190" y="128"/>
      <point x="228" y="124" type="curve"/>
      <point x="228" y="-1" type="line"/>
      <point x="53" y="-1"/>
      <point x="26" y="186"/>
      <point x="26" y="358" type="curve" smooth="yes"/>
      <point x="26" y="475"/>
      <point x="55" y="675"/>
    </contour>
    <contour>
      <point x="355" y="537" type="line"/>
      <point x="339" y="559"/>
      <point x="321" y="573"/>
      <point x="293" y="573" type="curve" smooth="yes"/>
      <point x="289" y="573"/>
      <point x="286" y="573"/>
      <point x="282" y="573" type="curve"/>
      <point x="282" y="698" type="line"/>
      <point x="360" y="698"/>
      <point x="415" y="659"/>
      <point x="450" y="600" type="curve"/>
    </contour>
    <contour>
      <point x="282" y="425" type="line"/>
      <point x="406" y="425"/>
      <point x="471" y="327"/>
      <point x="471" y="209" type="curve" smooth="yes"/>
      <point x="471" y="84"/>
      <point x="383" y="0"/>
      <point x="282" y="-1" type="curve"/>
      <point x="282" y="123" type="line"/>
      <point x="317" y="127"/>
      <point x="356" y="159"/>
      <point x="356" y="208" type="curve" smooth="yes"/>
      <point x="356" y="290"/>
      <point x="302" y="304"/>
      <point x="283" y="309" type="curve"/>
    </contour>
  </outline>
</glyph>
<glyph name="seven" format="1">
  <advance width="435"/>
  <unicode hex="0037"/>
  <outline>
    <contour>
      <point x="223" y="450" type="curve"/>
      <point x="356" y="450" type="line"/>
      <point x="317" y="300"/>
      <point x="289" y="154"/>
      <point x="273" y="0" type="curve"/>
      <point x="136" y="0" type="line"/>
      <point x="153" y="158"/>
      <point x="181" y="295"/>
    </contour>
    <contour>
      <point x="20" y="698" type="line"/>
      <point x="409" y="698" type="line"/>
      <point x="409" y="573" type="line"/>
      <point x="397" y="562"/>
      <point x="378" y="529"/>
      <point x="371" y="510" type="curve"/>
      <point x="236" y="510" type="line"/>
      <point x="260" y="572" type="line"/>
      <point x="20" y="572" type="line"/>
    </contour>
  </outline>
</glyph>
<glyph name="nine" format="1">
  <advance width="504"/>
  <unicode hex="0039"/>
  <outline>
    <contour>
      <point x="272" y="2" type="curve"/>
      <point x="272" y="127" type="line"/>
      <point x="344" y="142"/>
      <point x="349" y="248"/>
      <point x="349" y="300" type="curve"/>
      <point x="330" y="285"/>
      <point x="302" y="274"/>
      <point x="272" y="274" type="curve"/>
      <point x="272" y="392" type="line"/>
      <point x="273" y="392" type="line"/>
      <point x="293" y="397"/>
      <point x="340" y="413"/>
      <point x="340" y="490" type="curve" smooth="yes"/>
      <point x="340" y="529"/>
      <point x="310" y="571"/>
      <point x="272" y="575" type="curve"/>
      <point x="272" y="700" type="line"/>
      <point x="447" y="700"/>
      <point x="478" y="513"/>
      <point x="478" y="341" type="curve" smooth="yes"/>
      <point x="478" y="224"/>
      <point x="444" y="6"/>
    </contour>
    <contour>
      <point x="142" y="178" type="line"/>
      <point x="164" y="150"/>
      <point x="175" y="132"/>
      <point x="218" y="127" type="curve"/>
      <point x="218" y="1" type="line"/>
      <point x="140" y="1"/>
      <point x="76" y="51"/>
      <point x="43" y="115" type="curve"/>
    </contour>
    <contour>
      <point x="218" y="274" type="line"/>
      <point x="94" y="274"/>
      <point x="26" y="359"/>
      <point x="26" y="485" type="curve" smooth="yes"/>
      <point x="26" y="610"/>
      <point x="117" y="699"/>
      <point x="218" y="700" type="curve"/>
      <point x="218" y="576" type="line"/>
      <point x="183" y="572"/>
      <point x="145" y="540"/>
      <point x="145" y="491" type="curve" smooth="yes"/>
      <point x="145" y="409"/>
      <point x="198" y="395"/>
      <point x="217" y="390" type="curve"/>
    </contour>
  </outline>
</glyph>
<glyph name="semicolon" format="1">
  <advance width="291"/>
  <unicode hex="003B"/>
  <outline>
    <contour>
      <point x="91" y="360" type="curve" smooth="yes"/>
      <point x="91" y="402"/>
      <point x="124" y="436"/>
      <point x="166" y="436" type="curve" smooth="yes"/>
      <point x="208" y="436"/>
      <point x="241" y="402"/>
      <point x="241" y="360" type="curve" smooth="yes"/>
      <point x="241" y="318"/>
      <point x="208" y="285"/>
      <point x="166" y="285" type="curve" smooth="yes"/>
      <point x="124" y="285"/>
      <point x="91" y="318"/>
    </contour>
    <contour>
      <point x="177" y="-23" type="line"/>
      <point x="50" y="-23" type="line"/>
      <point x="87" y="129" type="line"/>
      <point x="214" y="129" type="line"/>
    </contour>
  </outline>
</glyph>
<glyph name="equal" format="1">
  <advance width="418"/>
  <unicode hex="003D"/>
  <outline>
    <contour>
      <point x="368" y="452" type="line"/>
      <point x="368" y="325" type="line"/>
      <point x="50" y="325" type="line"/>
      <point x="50" y="452" type="line"/>
    </contour>
    <contour>
      <point x="368" y="258" type="line"/>
      <point x="368" y="131" type="line"/>
      <point x="50" y="131" type="line"/>
      <point x="50" y="258" type="line"/>
    </contour>
  </outline>
</glyph>
<glyph name="question" format="1">
  <advance width="460"/>
  <unicode hex="003F"/>
  <outline>
    <contour>
      <point x="112" y="526" type="curve"/>
      <point x="30" y="611" type="line"/>
      <point x="60" y="649"/>
      <point x="110" y="703"/>
      <point x="218" y="703" type="curve" smooth="yes"/>
      <point x="346" y="703"/>
      <point x="426" y="620"/>
      <point x="430" y="491" type="curve" smooth="yes"/>
      <point x="430" y="488"/>
      <point x="430" y="484"/>
      <point x="430" y="481" type="curve" smooth="yes"/>
      <point x="430" y="289"/>
      <point x="263" y="276"/>
      <point x="263" y="276" type="curve"/>
      <point x="263" y="166" type="line"/>
      <point x="134" y="166" type="line"/>
      <point x="134" y="386" type="line"/>
      <point x="251" y="388"/>
      <point x="302" y="400"/>
      <point x="302" y="493" type="curve" smooth="yes"/>
      <point x="302" y="545"/>
      <point x="257" y="575"/>
      <point x="210" y="575" type="curve" smooth="yes"/>
      <point x="167" y="575"/>
      <point x="133" y="554"/>
    </contour>
    <contour>
      <point x="122" y="53" type="curve" smooth="yes"/>
      <point x="122" y="95"/>
      <point x="155" y="129"/>
      <point x="197" y="129" type="curve" smooth="yes"/>
      <point x="239" y="129"/>
      <point x="273" y="95"/>
      <point x="273" y="53" type="curve" smooth="yes"/>
      <point x="273" y="11"/>
      <point x="239" y="-22"/>
      <point x="197" y="-22" type="curve" smooth="yes"/>
      <point x="155" y="-22"/>
      <point x="122" y="11"/>
    </contour>
  </outline>
</glyph>
<glyph name="at" format="1">
  <advance width="803"/>
  <unicode hex="0040"/>
  <outline>
    <contour>
      <point x="667" y="103" type="curve"/>
      <point x="717" y="12" type="line"/>
      <point x="658" y="-45"/>
      <point x="538" y="-87"/>
      <point x="423" y="-87" type="curve" smooth="yes"/>
      <point x="195" y="-87"/>
      <point x="16" y="47"/>
      <point x="16" y="309" type="curve" smooth="yes"/>
      <point x="16" y="533"/>
      <point x="191" y="715"/>
      <point x="448" y="715" type="curve" smooth="yes"/>
      <point x="610" y="715"/>
      <point x="786" y="612"/>
      <point x="786" y="412" type="curve" smooth="yes"/>
      <point x="786" y="201"/>
      <point x="654" y="116"/>
      <point x="532" y="116" type="curve" smooth="yes"/>
      <point x="494" y="116"/>
      <point x="463" y="137"/>
      <point x="453" y="161" type="curve"/>
      <point x="439" y="139"/>
      <point x="407" y="116"/>
      <point x="344" y="116" type="curve" smooth="yes"/>
      <point x="268" y="116"/>
      <point x="205" y="193"/>
      <point x="205" y="289" type="curve" smooth="yes"/>
      <point x="205" y="444"/>
      <point x="327" y="519"/>
      <point x="409" y="519" type="curve" smooth="yes"/>
      <point x="473" y="519"/>
      <point x="495" y="493"/>
      <point x="510" y="477" type="curve"/>
      <point x="518" y="504" type="line"/>
      <point x="602" y="504" type="line"/>
      <point x="552" y="308" type="line" smooth="yes"/>
      <point x="549" y="297"/>
      <point x="545" y="280"/>
      <point x="545" y="266" type="curve" smooth="yes"/>
      <point x="545" y="249"/>
      <point x="549" y="240"/>
      <point x="563" y="240" type="curve" smooth="yes"/>
      <point x="598" y="240"/>
      <point x="666" y="280"/>
      <point x="666" y="412" type="curve" smooth="yes"/>
      <point x="666" y="530"/>
      <point x="549" y="602"/>
      <point x="451" y="602" type="curve" smooth="yes"/>
      <point x="284" y="602"/>
      <point x="136" y="481"/>
      <point x="136" y="312" type="curve" smooth="yes"/>
      <point x="136" y="122"/>
      <point x="260" y="22"/>
      <point x="414" y="22" type="curve" smooth="yes"/>
      <point x="501" y="22"/>
      <point x="587" y="47"/>
    </contour>
  </outline>
</glyph>
<glyph name="A" format="1">
  <advance width="516"/>
  <unicode hex="0041"/>
  <outline>
    <contour>
      <point x="200" y="699" type="line"/>
      <point x="339" y="699" type="line"/>
      <point x="490" y="0" type="line"/>
      <point x="353" y="0" type="line"/>
      <point x="333" y="85" type="line"/>
      <point x="239" y="85" type="line"/>
      <point x="269" y="223" type="line"/>
      <point x="305" y="223" type="line"/>
    </contour>
    <contour>
      <point x="155" y="582" type="line"/>
      <point x="170" y="582" type="line"/>
      <point x="230" y="302" type="line"/>
      <point x="164" y="0" type="line"/>
      <point x="26" y="0" type="line"/>
    </contour>
  </outline>
</glyph>
<glyph name="B" format="1">
  <advance width="484"/>
  <unicode hex="0042"/>
  <outline>
    <contour>
      <point x="221" y="122" type="line"/>
      <point x="308" y="122"/>
      <point x="324" y="179"/>
      <point x="324" y="205" type="curve" smooth="yes"/>
      <point x="324" y="227"/>
      <point x="311" y="289"/>
      <point x="221" y="289" type="curve"/>
      <point x="221" y="411" type="line"/>
      <point x="281" y="411"/>
      <point x="322" y="446"/>
      <point x="322" y="497" type="curve" smooth="yes"/>
      <point x="322" y="547"/>
      <point x="280" y="576"/>
      <point x="221" y="577" type="curve"/>
      <point x="221" y="700" type="line"/>
      <point x="229" y="701"/>
      <point x="237" y="701"/>
      <point x="245" y="701" type="curve" smooth="yes"/>
      <point x="397" y="701"/>
      <point x="454" y="574"/>
      <point x="454" y="514" type="curve" smooth="yes"/>
      <point x="454" y="513" type="line" smooth="yes"/>
      <point x="453" y="421"/>
      <point x="420" y="378"/>
      <point x="385" y="352" type="curve"/>
      <point x="423" y="322"/>
      <point x="458" y="285"/>
      <point x="458" y="201" type="curve" smooth="yes"/>
      <point x="458" y="199"/>
      <point x="458" y="198"/>
      <point x="458" y="197" type="curve" smooth="yes"/>
      <point x="457" y="86"/>
      <point x="366" y="-2"/>
      <point x="249" y="-2" type="curve" smooth="yes"/>
      <point x="240" y="-2"/>
      <point x="230" y="-1"/>
      <point x="221" y="0" type="curve"/>
    </contour>
    <contour>
      <point x="26" y="700" type="line"/>
      <point x="167" y="700" type="line"/>
      <point x="167" y="0" type="line"/>
      <point x="26" y="0" type="line"/>
    </contour>
  </outline>
</glyph>
<glyph name="C" format="1">
  <advance width="494"/>
  <unicode hex="0043"/>
  <outline>
    <contour>
      <point x="283" y="564" type="curve"/>
      <point x="283" y="705" type="line"/>
      <point x="375" y="705"/>
      <point x="468" y="612"/>
      <point x="468" y="516" type="curve"/>
      <point x="330" y="480" type="line"/>
      <point x="330" y="495" type="line" smooth="yes"/>
      <point x="330" y="509"/>
      <point x="330" y="520"/>
      <point x="325" y="532" type="curve" smooth="yes"/>
      <point x="315" y="555"/>
      <point x="283" y="564"/>
    </contour>
    <contour>
      <point x="283" y="136" type="line"/>
      <point x="283" y="136"/>
      <point x="315" y="143"/>
      <point x="325" y="166" type="curve" smooth="yes"/>
      <point x="330" y="178"/>
      <point x="330" y="189"/>
      <point x="330" y="203" type="curve" smooth="yes"/>
      <point x="330" y="215" type="line"/>
      <point x="468" y="182" type="line"/>
      <point x="468" y="76"/>
      <point x="375" y="-5"/>
      <point x="283" y="-5" type="curve"/>
    </contour>
    <contour>
      <point x="229" y="705" type="curve"/>
      <point x="229" y="564" type="line"/>
      <point x="183" y="563"/>
      <point x="173" y="523"/>
      <point x="173" y="518" type="curve"/>
      <point x="173" y="181" type="line"/>
      <point x="173" y="176"/>
      <point x="183" y="136"/>
      <point x="229" y="136" type="curve"/>
      <point x="229" y="-5" type="line"/>
      <point x="86" y="-5"/>
      <point x="32" y="121"/>
      <point x="32" y="181" type="curve"/>
      <point x="32" y="518" type="line"/>
      <point x="32" y="578"/>
      <point x="86" y="705"/>
    </contour>
  </outline>
</glyph>
<glyph name="D" format="1">
  <advance width="452"/>
  <unicode hex="0044"/>
  <outline>
    <contour>
      <point x="32" y="0" type="line"/>
      <point x="32" y="700" type="line"/>
      <point x="173" y="700" type="line"/>
      <point x="173" y="0" type="line"/>
    </contour>
    <contour>
      <point x="227" y="0" type="curve"/>
      <point x="227" y="141" type="line"/>
      <point x="233" y="141"/>
      <point x="282" y="149"/>
      <point x="283" y="197" type="curve" smooth="yes"/>
      <point x="283" y="503" type="line" smooth="yes"/>
      <point x="283" y="508"/>
      <point x="275" y="558"/>
      <point x="227" y="559" type="curve"/>
      <point x="227" y="700" type="line"/>
      <point x="370" y="700"/>
      <point x="424" y="566"/>
      <point x="424" y="503" type="curve" smooth="yes"/>
      <point x="424" y="197" type="line" smooth="yes"/>
      <point x="424" y="50"/>
      <point x="287" y="0"/>
    </contour>
  </outline>
</glyph>
<glyph name="E" format="1">
  <advance width="422"/>
  <unicode hex="0045"/>
  <outline>
    <contour>
      <point x="396" y="141" type="line"/>
      <point x="396" y="0" type="line"/>
      <point x="32" y="0" type="line"/>
      <point x="32" y="700" type="line"/>
      <point x="396" y="700" type="line"/>
      <point x="396" y="560" type="line"/>
      <point x="173" y="560" type="line"/>
      <point x="173" y="418" type="line"/>
      <point x="302" y="418" type="line"/>
      <point x="302" y="277" type="line"/>
      <point x="173" y="277" type="line"/>
      <point x="173" y="141" type="line"/>
    </contour>
  </outline>
</glyph>
<glyph name="F" format="1">
  <advance width="422"/>
  <unicode hex="0046"/>
  <outline>
    <contour>
      <point x="302" y="418" type="line"/>
      <point x="302" y="277" type="line"/>
      <point x="173" y="277" type="line"/>
      <point x="173" y="1" type="line"/>
      <point x="32" y="1" type="line"/>
      <point x="32" y="700" type="line"/>
      <point x="396" y="700" type="line"/>
      <point x="396" y="560" type="line"/>
      <point x="173" y="560" type="line"/>
      <point x="173" y="418" type="line"/>
    </contour>
  </outline>
</glyph>
<glyph name="G" format="1">
  <advance width="493"/>
  <unicode hex="0047"/>
  <outline>
    <contour>
      <point x="276" y="564" type="curve"/>
      <point x="276" y="705" type="line"/>
      <point x="369" y="705"/>
      <point x="461" y="612"/>
      <point x="461" y="516" type="curve"/>
      <point x="323" y="465" type="line"/>
      <point x="323" y="495" type="line" smooth="yes"/>
      <point x="323" y="509"/>
      <point x="323" y="520"/>
      <point x="318" y="532" type="curve" smooth="yes"/>
      <point x="308" y="555"/>
      <point x="276" y="564"/>
    </contour>
    <contour>
      <point x="461" y="353" type="line"/>
      <point x="461" y="176" type="line" smooth="yes"/>
      <point x="461" y="95"/>
      <point x="358" y="-4"/>
      <point x="276" y="-5" type="curve"/>
      <point x="276" y="136" type="line"/>
      <point x="282" y="136"/>
      <point x="319" y="155"/>
      <point x="319" y="190" type="curve" smooth="yes"/>
      <point x="319" y="223" type="line"/>
      <point x="276" y="223" type="line"/>
      <point x="276" y="353" type="line"/>
    </contour>
    <contour>
      <point x="222" y="-5" type="line"/>
      <point x="162" y="-5"/>
      <point x="26" y="48"/>
      <point x="26" y="192" type="curve"/>
      <point x="26" y="524" type="line"/>
      <point x="34" y="589"/>
      <point x="90" y="705"/>
      <point x="222" y="705" type="curve"/>
      <point x="222" y="564" type="line"/>
      <point x="176" y="563"/>
      <point x="167" y="513"/>
      <point x="167" y="508" type="curve"/>
      <point x="167" y="192" type="line" smooth="yes"/>
      <point x="168" y="146"/>
      <point x="217" y="136"/>
      <point x="222" y="136" type="curve"/>
    </contour>
  </outline>
</glyph>
<glyph name="J" format="1">
  <advance width="495"/>
  <unicode hex="004A"/>
  <outline>
    <contour>
      <point x="213" y="-5" type="line"/>
      <point x="153" y="-5"/>
      <point x="26" y="54"/>
      <point x="26" y="193" type="curve"/>
      <point x="26" y="242" type="line"/>
      <point x="167" y="242" type="line"/>
      <point x="167" y="193" type="line" smooth="yes"/>
      <point x="168" y="147"/>
      <point x="208" y="137"/>
      <point x="213" y="137" type="curve"/>
    </contour>
    <contour>
      <point x="267" y="-5" type="curve"/>
      <point x="267" y="137" type="line"/>
      <point x="272" y="137"/>
      <point x="322" y="147"/>
      <point x="323" y="193" type="curve" smooth="yes"/>
      <point x="323" y="700" type="line"/>
      <point x="463" y="700" type="line"/>
      <point x="463" y="193" type="line"/>
      <point x="463" y="49"/>
      <point x="327" y="-5"/>
    </contour>
  </outline>
</glyph>
<glyph name="K" format="1">
  <advance width="475"/>
  <unicode hex="004B"/>
  <outline>
    <contour>
      <point x="314" y="700" type="line"/>
      <point x="453" y="700" type="line"/>
      <point x="347" y="341" type="line"/>
      <point x="457" y="0" type="line"/>
      <point x="319" y="0" type="line"/>
      <point x="207" y="341" type="line"/>
    </contour>
    <contour>
      <point x="26" y="700" type="line"/>
      <point x="167" y="700" type="line"/>
      <point x="167" y="0" type="line"/>
      <point x="26" y="0" type="line"/>
    </contour>
  </outline>
</glyph>
<glyph name="L" format="1">
  <advance width="428"/>
  <unicode hex="004C"/>
  <outline>
    <contour>
      <point x="402" y="139" type="line"/>
      <point x="402" y="0" type="line"/>
      <point x="26" y="0" type="line"/>
      <point x="26" y="700" type="line"/>
      <point x="167" y="700" type="line"/>
      <point x="167" y="139" type="line"/>
    </contour>
  </outline>
</glyph>
<glyph name="N" format="1">
  <advance width="509"/>
  <unicode hex="004E"/>
  <outline>
    <contour>
      <point x="32" y="0" type="line"/>
      <point x="32" y="492" type="line"/>
      <point x="40" y="492" type="line"/>
      <point x="173" y="278" type="line"/>
      <point x="173" y="0" type="line"/>
    </contour>
    <contour>
      <point x="477" y="700" type="line"/>
      <point x="477" y="284" type="line"/>
      <point x="469" y="284" type="line"/>
      <point x="336" y="498" type="line"/>
      <point x="336" y="700" type="line"/>
    </contour>
    <contour>
      <point x="32" y="700" type="line"/>
      <point x="147" y="700" type="line"/>
      <point x="477" y="168" type="line"/>
      <point x="477" y="0" type="line"/>
      <point x="410" y="0" type="line"/>
      <point x="32" y="608" type="line"/>
    </contour>
  </outline>
</glyph>
<glyph name="P" format="1">
  <advance width="474"/>
  <unicode hex="0050"/>
  <outline>
    <contour>
      <point x="26" y="700" type="line"/>
      <point x="167" y="700" type="line"/>
      <point x="167" y="0" type="line"/>
      <point x="26" y="0" type="line"/>
    </contour>
    <contour>
      <point x="221" y="457" type="line"/>
      <point x="254" y="457" type="line" smooth="yes"/>
      <point x="261" y="457"/>
      <point x="305" y="458"/>
      <point x="305" y="508" type="curve" smooth="yes"/>
      <point x="305" y="559"/>
      <point x="263" y="561"/>
      <point x="254" y="561" type="curve" smooth="yes"/>
      <point x="221" y="561" type="line"/>
      <point x="221" y="700" type="line"/>
      <point x="402" y="700"/>
      <point x="448" y="626"/>
      <point x="448" y="512" type="curve" smooth="yes"/>
      <point x="448" y="369"/>
      <point x="378" y="318"/>
      <point x="221" y="318" type="curve"/>
    </contour>
  </outline>
</glyph>
<glyph name="R" format="1">
  <advance width="495"/>
  <unicode hex="0052"/>
  <outline>
    <contour>
      <point x="227" y="411" type="line"/>
      <point x="240" y="411" type="line" smooth="yes"/>
      <point x="300" y="411"/>
      <point x="326" y="447"/>
      <point x="326" y="488" type="curve" smooth="yes"/>
      <point x="326" y="536"/>
      <point x="289" y="567"/>
      <point x="240" y="567" type="curve" smooth="yes"/>
      <point x="227" y="567" type="line"/>
      <point x="227" y="700" type="line"/>
      <point x="377" y="700"/>
      <point x="453" y="616"/>
      <point x="453" y="496" type="curve" smooth="yes"/>
      <point x="453" y="428"/>
      <point x="432" y="381"/>
      <point x="386" y="352" type="curve"/>
      <point x="422" y="325"/>
      <point x="448" y="266"/>
      <point x="452" y="217" type="curve" smooth="yes"/>
      <point x="469" y="0" type="line"/>
      <point x="343" y="0" type="line"/>
      <point x="328" y="178" type="line" smooth="yes"/>
      <point x="321" y="257"/>
      <point x="298" y="285"/>
      <point x="227" y="286" type="curve"/>
    </contour>
    <contour>
      <point x="32" y="700" type="line"/>
      <point x="173" y="700" type="line"/>
      <point x="173" y="0" type="line"/>
      <point x="32" y="0" type="line"/>
    </contour>
  </outline>
</glyph>
<glyph name="T" format="1">
  <advance width="485"/>
  <unicode hex="0054"/>
  <outline>
    <contour>
      <point x="459" y="700" type="line"/>
      <point x="459" y="562" type="line"/>
      <point x="313" y="562" type="line"/>
      <point x="313" y="0" type="line"/>
      <point x="172" y="0" type="line"/>
      <point x="172" y="562" type="line"/>
      <point x="26" y="562" type="line"/>
      <point x="26" y="700" type="line"/>
    </contour>
  </outline>
</glyph>
<glyph name="U" format="1">
  <advance width="512"/>
  <unicode hex="0055"/>
  <outline>
    <contour>
      <point x="283" y="-5" type="curve"/>
      <point x="283" y="137" type="line"/>
      <point x="288" y="137"/>
      <point x="338" y="147"/>
      <point x="339" y="193" type="curve" smooth="yes"/>
      <point x="339" y="700" type="line"/>
      <point x="479" y="700" type="line"/>
      <point x="479" y="193" type="line" smooth="yes"/>
      <point x="479" y="48"/>
      <point x="344" y="-5"/>
    </contour>
    <contour>
      <point x="229" y="-5" type="line"/>
      <point x="169" y="-5"/>
      <point x="32" y="49"/>
      <point x="32" y="193" type="curve" smooth="yes"/>
      <point x="32" y="700" type="line"/>
      <point x="173" y="700" type="line"/>
      <point x="173" y="193" type="line" smooth="yes"/>
      <point x="174" y="147"/>
      <point x="224" y="137"/>
      <point x="229" y="137" type="curve"/>
    </contour>
  </outline>
</glyph>
<glyph name="V" format="1">
  <advance width="508"/>
  <unicode hex="0056"/>
  <outline>
    <contour>
      <point x="26" y="700" type="line"/>
      <point x="170" y="700" type="line"/>
      <point x="329" y="158" type="line"/>
      <point x="276" y="0" type="line"/>
      <point x="229" y="0" type="line"/>
    </contour>
    <contour>
      <point x="482" y="700" type="line"/>
      <point x="442" y="569"/>
      <point x="401" y="430"/>
      <point x="359" y="290" type="curve"/>
      <point x="349" y="290" type="line"/>
      <point x="283" y="514" type="line"/>
      <point x="338" y="700" type="line"/>
    </contour>
  </outline>
</glyph>
<glyph name="Z" format="1">
  <advance width="418"/>
  <unicode hex="005A"/>
  <outline>
    <contour>
      <point x="182" y="144" type="line"/>
      <point x="392" y="144" type="line"/>
      <point x="392" y="0" type="line"/>
      <point x="26" y="0" type="line"/>
      <point x="26" y="141" type="line"/>
      <point x="236" y="560" type="line"/>
      <point x="26" y="560" type="line"/>
      <point x="26" y="700" type="line"/>
      <point x="392" y="700" type="line"/>
      <point x="392" y="563" type="line"/>
    </contour>
  </outline>
</glyph>
<glyph name="asciicircum" format="1">
  <advance width="374"/>
  <unicode hex="005E"/>
  <outline>
    <contour>
      <point x="27" y="460" type="line"/>
      <point x="176" y="756" type="line"/>
      <point x="264" y="756" type="line"/>
      <point x="413" y="460" type="line"/>
      <point x="290" y="460" type="line"/>
      <point x="219" y="603" type="line"/>
      <point x="149" y="460" type="line"/>
    </contour>
  </outline>
</glyph>
<glyph name="underscore" format="1">
  <advance width="510"/>
  <unicode hex="005F"/>
  <outline>
    <contour>
      <point x="480" y="-205" type="line"/>
      <point x="30" y="-205" type="line"/>
      <point x="30" y="-98" type="line"/>
      <point x="480" y="-98" type="line"/>
    </contour>
  </outline>
</glyph>
<glyph name="a" format="1">
  <advance width="435"/>
  <unicode hex="0061"/>
  <outline>
    <contour>
      <point x="181" y="407" type="line"/>
      <point x="178" y="407" type="line" smooth="yes"/>
      <point x="155" y="405"/>
      <point x="138" y="390"/>
      <point x="138" y="353" type="curve" smooth="yes"/>
      <point x="138" y="349" type="line"/>
      <point x="33" y="389" type="line"/>
      <point x="33" y="391" type="line" smooth="yes"/>
      <point x="33" y="462"/>
      <point x="110" y="519"/>
      <point x="178" y="519" type="curve" smooth="yes"/>
      <point x="181" y="519" type="line"/>
    </contour>
    <contour>
      <point x="228" y="519" type="line"/>
      <point x="231" y="519" type="line" smooth="yes"/>
      <point x="334" y="519"/>
      <point x="384" y="424"/>
      <point x="384" y="380" type="curve" smooth="yes"/>
      <point x="384" y="143" type="line" smooth="yes"/>
      <point x="384" y="138"/>
      <point x="386" y="114"/>
      <point x="407" y="114" type="curve" smooth="yes"/>
      <point x="410" y="114" type="line"/>
      <point x="410" y="1" type="line"/>
      <point x="407" y="1" type="line" smooth="yes"/>
      <point x="370" y="1"/>
      <point x="341" y="13"/>
      <point x="321" y="30" type="curve"/>
      <point x="298" y="12"/>
      <point x="268" y="1"/>
      <point x="232" y="1" type="curve" smooth="yes"/>
      <point x="229" y="1" type="line"/>
      <point x="229" y="113" type="line"/>
      <point x="232" y="113" type="line" smooth="yes"/>
      <point x="262" y="114"/>
      <point x="268" y="146"/>
      <point x="268" y="149" type="curve" smooth="yes"/>
      <point x="268" y="227" type="line"/>
      <point x="230" y="205"/>
      <point x="153" y="190"/>
      <point x="139" y="183" type="curve" smooth="yes"/>
      <point x="133" y="180"/>
      <point x="127" y="173"/>
      <point x="127" y="162" type="curve" smooth="yes"/>
      <point x="127" y="149" type="line" smooth="yes"/>
      <point x="127" y="129"/>
      <point x="137" y="113"/>
      <point x="163" y="113" type="curve" smooth="yes"/>
      <point x="180" y="113" type="line"/>
      <point x="180" y="1" type="line"/>
      <point x="83" y="1"/>
      <point x="26" y="64"/>
      <point x="26" y="121" type="curve" smooth="yes"/>
      <point x="26" y="167" type="line" smooth="yes"/>
      <point x="26" y="200"/>
      <point x="33" y="233"/>
      <point x="75" y="257" type="curve" smooth="yes"/>
      <point x="118" y="282"/>
      <point x="268" y="311"/>
      <point x="268" y="351" type="curve" smooth="yes"/>
      <point x="268" y="355"/>
      <point x="268" y="359"/>
      <point x="268" y="363" type="curve" smooth="yes"/>
      <point x="268" y="387"/>
      <point x="266" y="404"/>
      <point x="231" y="407" type="curve"/>
      <point x="228" y="408" type="line"/>
    </contour>
  </outline>
</glyph>
<glyph name="d" format="1">
  <advance width="414"/>
  <unicode hex="0064"/>
  <outline>
    <contour>
      <point x="384" y="0" type="line"/>
      <point x="258" y="0" type="line"/>
      <point x="258" y="698" type="line"/>
      <point x="384" y="698" type="line"/>
    </contour>
    <contour>
      <point x="180" y="516" type="curve" smooth="yes"/>
      <point x="210" y="516" type="line"/>
      <point x="210" y="398" type="line"/>
      <point x="180" y="398" type="line" smooth="yes"/>
      <point x="153" y="397"/>
      <point x="148" y="375"/>
      <point x="148" y="373" type="curve" smooth="yes"/>
      <point x="148" y="143" type="line" smooth="yes"/>
      <point x="148" y="141"/>
      <point x="154" y="118"/>
      <point x="182" y="118" type="curve" smooth="yes"/>
      <point x="210" y="118" type="line"/>
      <point x="210" y="0" type="line"/>
      <point x="182" y="0" type="line" smooth="yes"/>
      <point x="78" y="0"/>
      <point x="30" y="97"/>
      <point x="30" y="141" type="curve" smooth="yes"/>
      <point x="30" y="377" type="line" smooth="yes"/>
      <point x="31" y="422"/>
      <point x="79" y="516"/>
    </contour>
  </outline>
</glyph>
<glyph name="e" format="1">
  <advance width="424"/>
  <unicode hex="0065"/>
  <outline>
    <contour>
      <point x="236" y="0" type="line"/>
      <point x="236" y="111" type="line"/>
      <point x="242" y="111" type="line" smooth="yes"/>
      <point x="273" y="113"/>
      <point x="294" y="132"/>
      <point x="298" y="153" type="curve" smooth="yes"/>
      <point x="299" y="157" type="line"/>
      <point x="398" y="120" type="line"/>
      <point x="397" y="118" type="line"/>
      <point x="382" y="54"/>
      <point x="312" y="0"/>
      <point x="242" y="0" type="curve" smooth="yes"/>
    </contour>
    <contour>
      <point x="240" y="402" type="curve" smooth="yes"/>
      <point x="236" y="402" type="line"/>
      <point x="236" y="516" type="line"/>
      <point x="242" y="516" type="line" smooth="yes"/>
      <point x="312" y="516"/>
      <point x="397" y="450"/>
      <point x="397" y="378" type="curve" smooth="yes"/>
      <point x="397" y="208" type="line"/>
      <point x="148" y="208" type="line"/>
      <point x="148" y="141" type="line" smooth="yes"/>
      <point x="148" y="138"/>
      <point x="155" y="109"/>
      <point x="183" y="108" type="curve" smooth="yes"/>
      <point x="188" y="108" type="line"/>
      <point x="188" y="0" type="line"/>
      <point x="183" y="0" type="line" smooth="yes"/>
      <point x="79" y="0"/>
      <point x="26" y="96"/>
      <point x="26" y="141" type="curve" smooth="yes"/>
      <point x="26" y="377" type="line" smooth="yes"/>
      <point x="27" y="422"/>
      <point x="80" y="516"/>
      <point x="182" y="516" type="curve" smooth="yes"/>
      <point x="187" y="516" type="line"/>
      <point x="187" y="400" type="line"/>
      <point x="184" y="400" type="line" smooth="yes"/>
      <point x="155" y="400"/>
      <point x="148" y="380"/>
      <point x="148" y="369" type="curve" smooth="yes"/>
      <point x="148" y="324" type="line"/>
      <point x="283" y="324" type="line"/>
      <point x="283" y="369" type="line" smooth="yes"/>
      <point x="283" y="396"/>
      <point x="260" y="402"/>
    </contour>
  </outline>
</glyph>
<glyph name="f" format="1">
  <advance width="304"/>
  <unicode hex="0066"/>
  <outline>
    <contour>
      <point x="89" y="552" type="line" smooth="yes"/>
      <point x="89" y="597"/>
      <point x="140" y="695"/>
      <point x="243" y="696" type="curve" smooth="yes"/>
      <point x="304" y="696" type="line"/>
      <point x="277" y="579" type="line"/>
      <point x="244" y="579" type="line" smooth="yes"/>
      <point x="216" y="578"/>
      <point x="211" y="555"/>
      <point x="211" y="552" type="curve" smooth="yes"/>
      <point x="211" y="515" type="line"/>
      <point x="277" y="516" type="line"/>
      <point x="277" y="400" type="line"/>
      <point x="211" y="400" type="line"/>
      <point x="211" y="0" type="line"/>
      <point x="89" y="0" type="line"/>
      <point x="89" y="400" type="line"/>
      <point x="26" y="400" type="line"/>
      <point x="26" y="516" type="line"/>
      <point x="89" y="516" type="line"/>
    </contour>
  </outline>
</glyph>
<glyph name="g" format="1">
  <advance width="415"/>
  <unicode hex="0067"/>
  <outline>
    <contour>
      <point x="236" y="-181" type="curve"/>
      <point x="26" y="-181" type="line"/>
      <point x="54" y="-69" type="line"/>
      <point x="234" y="-69" type="line"/>
      <point x="265" y="-68"/>
      <point x="272" y="-43"/>
      <point x="272" y="-40" type="curve" smooth="yes"/>
      <point x="272" y="3" type="line"/>
      <point x="260" y="0"/>
      <point x="248" y="-1"/>
      <point x="234" y="-1" type="curve" smooth="yes"/>
      <point x="231" y="-1" type="line"/>
      <point x="231" y="109" type="line"/>
      <point x="234" y="109" type="line" smooth="yes"/>
      <point x="265" y="110"/>
      <point x="272" y="136"/>
      <point x="272" y="139" type="curve" smooth="yes"/>
      <point x="272" y="374" type="line" smooth="yes"/>
      <point x="272" y="377"/>
      <point x="265" y="403"/>
      <point x="234" y="403" type="curve" smooth="yes"/>
      <point x="231" y="403" type="line"/>
      <point x="231" y="516" type="line"/>
      <point x="234" y="516" type="line" smooth="yes"/>
      <point x="247" y="516"/>
      <point x="261" y="514"/>
      <point x="272" y="511" type="curve"/>
      <point x="272" y="516" type="line"/>
      <point x="389" y="516" type="line"/>
      <point x="389" y="-40" type="line" smooth="yes"/>
      <point x="389" y="-83"/>
      <point x="339" y="-180"/>
    </contour>
    <contour>
      <point x="189" y="516" type="curve" smooth="yes"/>
      <point x="192" y="516" type="line"/>
      <point x="192" y="403" type="line"/>
      <point x="189" y="403" type="line" smooth="yes"/>
      <point x="157" y="403"/>
      <point x="150" y="378"/>
      <point x="150" y="375" type="curve" smooth="yes"/>
      <point x="150" y="140" type="line" smooth="yes"/>
      <point x="150" y="137"/>
      <point x="158" y="112"/>
      <point x="189" y="112" type="curve" smooth="yes"/>
      <point x="192" y="112" type="line"/>
      <point x="192" y="-1" type="line"/>
      <point x="189" y="-1" type="line" smooth="yes"/>
      <point x="84" y="-1"/>
      <point x="35" y="96"/>
      <point x="35" y="139" type="curve" smooth="yes"/>
      <point x="35" y="378" type="line"/>
      <point x="36" y="422"/>
      <point x="85" y="516"/>
    </contour>
  </outline>
</glyph>
<glyph name="h" format="1">
  <advance width="421"/>
  <unicode hex="0068"/>
  <outline>
    <contour>
      <point x="238" y="511" type="line"/>
      <point x="241" y="511" type="line"/>
      <point x="338" y="507"/>
      <point x="395" y="444"/>
      <point x="395" y="374" type="curve" smooth="yes"/>
      <point x="395" y="1" type="line"/>
      <point x="281" y="1" type="line"/>
      <point x="281" y="365" type="line" smooth="yes"/>
      <point x="281" y="369"/>
      <point x="275" y="396"/>
      <point x="241" y="399" type="curve" smooth="yes"/>
      <point x="238" y="399" type="line"/>
    </contour>
    <contour>
      <point x="145" y="1" type="line"/>
      <point x="30" y="1" type="line"/>
      <point x="30" y="698" type="line"/>
      <point x="144" y="698" type="line"/>
      <point x="144" y="505" type="line"/>
      <point x="147" y="506" type="line" smooth="yes"/>
      <point x="159" y="509"/>
      <point x="176" y="511"/>
      <point x="190" y="511" type="curve" smooth="yes"/>
      <point x="193" y="511" type="line"/>
      <point x="193" y="399" type="line"/>
      <point x="190" y="399" type="line" smooth="yes"/>
      <point x="158" y="396"/>
      <point x="145" y="370"/>
      <point x="145" y="365" type="curve" smooth="yes"/>
    </contour>
  </outline>
</glyph>
<glyph name="i" format="1">
  <advance width="199"/>
  <unicode hex="0069"/>
  <outline>
    <contour>
      <point x="172" y="630" type="curve" smooth="yes"/>
      <point x="172" y="591"/>
      <point x="139" y="558"/>
      <point x="99" y="558" type="curve" smooth="yes"/>
      <point x="59" y="558"/>
      <point x="26" y="591"/>
      <point x="26" y="630" type="curve" smooth="yes"/>
      <point x="26" y="670"/>
      <point x="59" y="703"/>
      <point x="99" y="703" type="curve" smooth="yes"/>
      <point x="139" y="703"/>
      <point x="172" y="670"/>
    </contour>
    <contour>
      <point x="161" y="0" type="line"/>
      <point x="39" y="0" type="line"/>
      <point x="39" y="516" type="line"/>
      <point x="161" y="516" type="line"/>
    </contour>
  </outline>
</glyph>
<glyph name="j" format="1">
  <advance width="194"/>
  <unicode hex="006A"/>
  <outline>
    <contour>
      <point x="159" y="-38" type="line" smooth="yes"/>
      <point x="159" y="-85"/>
      <point x="109" y="-181"/>
      <point x="7" y="-181" type="curve" smooth="yes"/>
      <point x="-50" y="-181" type="line"/>
      <point x="-23" y="-64" type="line"/>
      <point x="4" y="-64" type="line"/>
      <point x="32" y="-63"/>
      <point x="37" y="-40"/>
      <point x="37" y="-38" type="curve" smooth="yes"/>
      <point x="37" y="516" type="line"/>
      <point x="159" y="516" type="line"/>
    </contour>
    <contour>
      <point x="170" y="628" type="curve" smooth="yes"/>
      <point x="170" y="588"/>
      <point x="137" y="556"/>
      <point x="97" y="556" type="curve" smooth="yes"/>
      <point x="57" y="556"/>
      <point x="24" y="588"/>
      <point x="24" y="628" type="curve" smooth="yes"/>
      <point x="24" y="668"/>
      <point x="57" y="702"/>
      <point x="97" y="702" type="curve" smooth="yes"/>
      <point x="137" y="702"/>
      <point x="170" y="668"/>
    </contour>
  </outline>
</glyph>
<glyph name="k" format="1">
  <advance width="452"/>
  <unicode hex="006B"/>
  <outline>
    <contour>
      <point x="155" y="0" type="line"/>
      <point x="30" y="0" type="line"/>
      <point x="30" y="698" type="line"/>
      <point x="155" y="698" type="line"/>
    </contour>
    <contour>
      <point x="296" y="0" type="line"/>
      <point x="183" y="257" type="line"/>
      <point x="295" y="514" type="line"/>
      <point x="428" y="514" type="line"/>
      <point x="313" y="257" type="line"/>
      <point x="428" y="0" type="line"/>
    </contour>
  </outline>
</glyph>
<glyph name="n" format="1">
  <advance width="434"/>
  <unicode hex="006E"/>
  <outline>
    <contour>
      <point x="280" y="372.24" type="line"/>
      <point x="279.83" y="374.983"/>
      <point x="273.69" y="398"/>
      <point x="243.42" y="398" type="curve" smooth="yes"/>
      <point x="237.518" y="398" type="line"/>
      <point x="237.518" y="519" type="line"/>
      <point x="243.42" y="519" type="line" smooth="yes"/>
      <point x="350.286" y="519"/>
      <point x="404" y="422.193"/>
      <point x="404" y="377.486" type="curve" smooth="yes"/>
      <point x="404" y="0" type="line"/>
      <point x="280" y="0" type="line"/>
    </contour>
    <contour>
      <point x="154" y="372.236" type="curve"/>
      <point x="154" y="0" type="line"/>
      <point x="30" y="0" type="line"/>
      <point x="30" y="377.486" type="line" smooth="yes"/>
      <point x="30" y="425.143"/>
      <point x="83.7969" y="519"/>
      <point x="190.58" y="519" type="curve" smooth="yes"/>
      <point x="196.482" y="519" type="line"/>
      <point x="196.482" y="398" type="line"/>
      <point x="190.58" y="398" type="line" smooth="yes"/>
      <point x="159.7" y="398"/>
      <point x="154.11" y="373.985"/>
    </contour>
  </outline>
</glyph>
<glyph name="p" format="1">
  <advance width="422"/>
  <unicode hex="0070"/>
  <outline>
    <contour>
      <point x="30" y="516" type="line"/>
      <point x="155" y="516" type="line"/>
      <point x="155" y="-182" type="line"/>
      <point x="30" y="-182" type="line"/>
    </contour>
    <contour>
      <point x="232" y="0" type="curve" smooth="yes"/>
      <point x="203" y="0" type="line"/>
      <point x="203" y="118" type="line"/>
      <point x="234" y="118" type="line" smooth="yes"/>
      <point x="271" y="119"/>
      <point x="276" y="134"/>
      <point x="276" y="143" type="curve" smooth="yes"/>
      <point x="276" y="372" type="line" smooth="yes"/>
      <point x="276" y="385"/>
      <point x="258" y="398"/>
      <point x="228" y="398" type="curve" smooth="yes"/>
      <point x="196" y="398" type="line"/>
      <point x="196" y="516" type="line"/>
      <point x="228" y="516" type="line" smooth="yes"/>
      <point x="335" y="516"/>
      <point x="396" y="431"/>
      <point x="396" y="375" type="curve" smooth="yes"/>
      <point x="396" y="139" type="line" smooth="yes"/>
      <point x="396" y="86"/>
      <point x="345" y="0"/>
    </contour>
  </outline>
</glyph>
<glyph name="q" format="1">
  <advance width="416"/>
  <unicode hex="0071"/>
  <outline>
    <contour>
      <point x="146" y="143.457" type="line" smooth="yes"/>
      <point x="146" y="141.746"/>
      <point x="150.694" y="118.852"/>
      <point x="188.21" y="118" type="curve" smooth="yes"/>
      <point x="219" y="118" type="line"/>
      <point x="219" y="0" type="line"/>
      <point x="189.5" y="0" type="line" smooth="yes"/>
      <point x="76.7236" y="0"/>
      <point x="27.0586" y="93.8779"/>
      <point x="26" y="139.477" type="curve"/>
      <point x="26" y="374.504" type="line" smooth="yes"/>
      <point x="26" y="419.083"/>
      <point x="75.6426" y="516"/>
      <point x="183.053" y="516" type="curve" smooth="yes"/>
      <point x="214.466" y="516" type="line"/>
      <point x="214.466" y="398" type="line"/>
      <point x="183.053" y="398" type="line" smooth="yes"/>
      <point x="151.508" y="398"/>
      <point x="146.105" y="374.322"/>
      <point x="146" y="372.536" type="curve"/>
    </contour>
    <contour>
      <point x="380" y="516" type="line"/>
      <point x="386" y="-182" type="line"/>
      <point x="261.824" y="-182" type="line"/>
      <point x="255.934" y="516" type="line"/>
    </contour>
  </outline>
</glyph>
<glyph name="r" format="1">
  <advance width="316"/>
  <unicode hex="0072"/>
  <outline>
    <contour>
      <point x="36" y="516" type="line"/>
      <point x="160" y="516" type="line"/>
      <point x="160" y="454" type="line"/>
      <point x="181" y="481"/>
      <point x="229" y="516"/>
      <point x="284" y="516" type="curve" smooth="yes"/>
      <point x="317" y="516" type="line"/>
      <point x="289" y="395" type="line"/>
      <point x="222" y="394"/>
      <point x="160" y="331"/>
      <point x="160" y="271" type="curve" smooth="yes"/>
      <point x="160" y="0" type="line"/>
      <point x="36" y="0" type="line"/>
    </contour>
  </outline>
</glyph>
<glyph name="s" format="1">
  <advance width="418"/>
  <unicode hex="0073"/>
  <outline>
    <contour>
      <point x="21.5117" y="133.699" type="curve" smooth="yes"/>
      <point x="21.3896" y="136.318" type="line"/>
      <point x="133.102" y="156.728" type="line"/>
      <point x="133.461" y="153.535" type="line" smooth="yes"/>
      <point x="135.582" y="134.711"/>
      <point x="156.954" y="112.609"/>
      <point x="181.37" y="110.634" type="curve" smooth="yes"/>
      <point x="184.25" y="110.4" type="line"/>
      <point x="184.256" y="-4.83789" type="line"/>
      <point x="181.108" y="-4.83594" type="line" smooth="yes"/>
      <point x="87.0693" y="-4.76855"/>
      <point x="24.5029" y="69.4941"/>
    </contour>
    <contour>
      <point x="388.062" y="376.233" type="curve" smooth="yes"/>
      <point x="388.059" y="373.703" type="line"/>
      <point x="276.358" y="354.703" type="line"/>
      <point x="276.062" y="357.93" type="line" smooth="yes"/>
      <point x="272.25" y="398.436"/>
      <point x="234.645" y="403.981"/>
      <point x="226.469" y="403.767" type="curve" smooth="yes"/>
      <point x="223.207" y="403.682" type="line"/>
      <point x="224.314" y="517" type="line"/>
      <point x="227.431" y="517" type="line" smooth="yes"/>
      <point x="321.226" y="517"/>
      <point x="388.12" y="440.09"/>
    </contour>
    <contour>
      <point x="182.452" y="406.102" type="line"/>
      <point x="179.653" y="405.809" type="line" smooth="yes"/>
      <point x="139.536" y="401.574"/>
      <point x="137.793" y="376.524"/>
      <point x="137.928" y="361.886" type="curve" smooth="yes"/>
      <point x="138.093" y="343.848"/>
      <point x="152.713" y="322.199"/>
      <point x="294.115" y="295.534" type="curve" smooth="yes"/>
      <point x="345.951" y="285.355"/>
      <point x="397.119" y="242.587"/>
      <point x="397.119" y="159.978" type="curve" smooth="yes"/>
      <point x="397.119" y="57.2803"/>
      <point x="321.214" y="-4.83594"/>
      <point x="228.189" y="-4.83594" type="curve" smooth="yes"/>
      <point x="225.043" y="-4.83594" type="line"/>
      <point x="225.043" y="109.125" type="line"/>
      <point x="227.97" y="109.316" type="line" smooth="yes"/>
      <point x="242.735" y="110.28"/>
      <point x="278.742" y="120.536"/>
      <point x="279.668" y="152.126" type="curve" smooth="yes"/>
      <point x="281.015" y="198.105"/>
      <point x="167.596" y="205.497"/>
      <point x="110.892" y="231.727" type="curve" smooth="yes"/>
      <point x="62.0283" y="255.33"/>
      <point x="26.4053" y="286.939"/>
      <point x="26.4053" y="370.558" type="curve" smooth="yes"/>
      <point x="26.4053" y="472.585"/>
      <point x="125.04" y="516.633"/>
      <point x="179.234" y="516.633" type="curve" smooth="yes"/>
      <point x="182.377" y="516.633" type="line"/>
    </contour>
  </outline>
</glyph>
<glyph name="t" format="1">
  <advance width="324"/>
  <unicode hex="0074"/>
  <outline>
    <contour>
      <point x="244" y="125" type="curve" smooth="yes"/>
      <point x="271" y="125" type="line"/>
      <point x="298" y="0" type="line"/>
      <point x="243" y="0" type="line" smooth="yes"/>
      <point x="121" y="1"/>
      <point x="89" y="66"/>
      <point x="89" y="168" type="curve" smooth="yes"/>
      <point x="89" y="398" type="line"/>
      <point x="26" y="398" type="line"/>
      <point x="26" y="516" type="line"/>
      <point x="89" y="516" type="line"/>
      <point x="89" y="700" type="line"/>
      <point x="211" y="700" type="line"/>
      <point x="211" y="516" type="line"/>
      <point x="271" y="516" type="line"/>
      <point x="271" y="398" type="line"/>
      <point x="211" y="398" type="line"/>
      <point x="211" y="159" type="line" smooth="yes"/>
      <point x="211" y="145"/>
      <point x="216" y="126"/>
    </contour>
  </outline>
</glyph>
<glyph name="u" format="1">
  <advance width="434"/>
  <unicode hex="0075"/>
  <outline>
    <contour>
      <point x="238" y="118" type="line"/>
      <point x="243" y="118" type="line" smooth="yes"/>
      <point x="274" y="118"/>
      <point x="280" y="142"/>
      <point x="280" y="144" type="curve"/>
      <point x="280" y="516" type="line"/>
      <point x="404" y="516" type="line"/>
      <point x="404" y="139" type="line" smooth="yes"/>
      <point x="404" y="94"/>
      <point x="350" y="-3"/>
      <point x="243" y="-3" type="curve" smooth="yes"/>
      <point x="238" y="-3" type="line"/>
    </contour>
    <contour>
      <point x="30" y="516" type="line"/>
      <point x="154" y="516" type="line"/>
      <point x="154" y="144" type="line"/>
      <point x="154" y="141"/>
      <point x="160" y="118"/>
      <point x="191" y="118" type="curve" smooth="yes"/>
      <point x="196" y="118" type="line"/>
      <point x="196" y="-3" type="line"/>
      <point x="191" y="-3" type="line" smooth="yes"/>
      <point x="84" y="-3"/>
      <point x="30" y="91"/>
      <point x="30" y="139" type="curve" smooth="yes"/>
    </contour>
  </outline>
</glyph>
<glyph name="v" format="1">
  <advance width="400"/>
  <unicode hex="0076"/>
  <outline>
    <contour>
      <point x="269" y="516" type="line"/>
      <point x="400" y="515" type="line"/>
      <point x="308" y="208" type="line"/>
      <point x="296" y="208" type="line"/>
      <point x="232" y="394" type="line"/>
    </contour>
    <contour>
      <point x="174" y="0" type="line"/>
      <point x="16" y="515" type="line"/>
      <point x="151" y="516" type="line"/>
      <point x="286" y="120" type="line"/>
      <point x="243" y="0" type="line"/>
    </contour>
  </outline>
</glyph>
<glyph name="w" format="1">
  <advance width="577"/>
  <unicode hex="0077"/>
  <outline>
    <contour>
      <point x="160" y="0" type="line"/>
      <point x="8" y="515" type="line"/>
      <point x="144" y="516" type="line"/>
      <point x="261" y="120" type="line"/>
      <point x="222" y="0" type="line"/>
    </contour>
    <contour>
      <point x="348" y="0" type="line"/>
      <point x="190" y="515" type="line"/>
      <point x="328" y="516" type="line"/>
      <point x="449" y="120" type="line"/>
      <point x="412" y="0" type="line"/>
    </contour>
    <contour>
      <point x="443" y="516" type="line"/>
      <point x="569" y="515" type="line"/>
      <point x="471" y="208" type="line"/>
      <point x="463" y="208" type="line"/>
      <point x="407" y="394" type="line"/>
    </contour>
  </outline>
</glyph>
<glyph name="x" format="1">
  <advance width="381"/>
  <unicode hex="0078"/>
  <outline>
    <contour>
      <point x="132" y="262" type="line"/>
      <point x="22" y="516" type="line"/>
      <point x="147" y="516" type="line"/>
      <point x="200" y="399" type="line"/>
      <point x="252" y="515" type="line"/>
      <point x="378" y="515" type="line"/>
      <point x="269" y="262" type="line"/>
      <point x="382" y="0" type="line"/>
      <point x="257" y="0" type="line"/>
      <point x="200" y="126" type="line"/>
      <point x="143" y="0" type="line"/>
      <point x="18" y="0" type="line"/>
    </contour>
  </outline>
</glyph>
<glyph name="y" format="1">
  <advance width="383"/>
  <unicode hex="0079"/>
  <outline>
    <contour>
      <point x="118" y="113" type="line"/>
      <point x="0" y="514" type="line"/>
      <point x="131" y="515" type="line"/>
      <point x="188" y="327" type="line"/>
      <point x="188" y="328"/>
      <point x="189" y="328"/>
      <point x="189" y="329" type="curve"/>
      <point x="252" y="111" type="line"/>
      <point x="155" y="-182" type="line"/>
      <point x="29" y="-182" type="line"/>
    </contour>
    <contour>
      <point x="251" y="515" type="line"/>
      <point x="382" y="514" type="line"/>
      <point x="279" y="208" type="line"/>
      <point x="267" y="208" type="line"/>
      <point x="213" y="393" type="line"/>
    </contour>
  </outline>
</glyph>
<glyph name="z" format="1">
  <advance width="348"/>
  <unicode hex="007A"/>
  <outline>
    <contour>
      <point x="322" y="400.438" type="line"/>
      <point x="168.732" y="118.195" type="line"/>
      <point x="322" y="117.456" type="line"/>
      <point x="322" y="-0.494141" type="line"/>
      <point x="26.2109" y="-0.494141" type="line"/>
      <point x="26.2109" y="115.613" type="line"/>
      <point x="182.734" y="394.113" type="line"/>
      <point x="26.2109" y="394.113" type="line"/>
      <point x="26.2109" y="513.997" type="line"/>
      <point x="322" y="514.249" type="line"/>
    </contour>
  </outline>
</glyph>
<glyph name="braceleft" format="1">
  <advance width="407"/>
  <unicode hex="007B"/>
  <outline>
    <contour>
      <point x="307" y="735" type="curve"/>
      <point x="307" y="635" type="line"/>
      <point x="239" y="635"/>
      <point x="240" y="591"/>
      <point x="239" y="469" type="curve"/>
      <point x="239" y="383" type="line" smooth="yes"/>
      <point x="239" y="366"/>
      <point x="219" y="354"/>
      <point x="195" y="348" type="curve"/>
      <point x="220" y="340"/>
      <point x="239" y="325"/>
      <point x="239" y="304" type="curve" smooth="yes"/>
      <point x="239" y="207" type="line" smooth="yes"/>
      <point x="239" y="86"/>
      <point x="253" y="61"/>
      <point x="307" y="61" type="curve"/>
      <point x="307" y="-38" type="line"/>
      <point x="301" y="-38"/>
      <point x="295" y="-38"/>
      <point x="289" y="-38" type="curve" smooth="yes"/>
      <point x="200" y="-38"/>
      <point x="112" y="-31"/>
      <point x="112" y="192" type="curve" smooth="yes"/>
      <point x="112" y="290" type="line" smooth="yes"/>
      <point x="112" y="322"/>
      <point x="86" y="329"/>
      <point x="50" y="348" type="curve"/>
      <point x="86" y="363"/>
      <point x="111" y="370"/>
      <point x="112" y="408" type="curve" smooth="yes"/>
      <point x="112" y="504" type="line" smooth="yes"/>
      <point x="112" y="715"/>
      <point x="198" y="735"/>
    </contour>
  </outline>
</glyph>
<glyph name="asciitilde" format="1">
  <advance width="568"/>
  <unicode hex="007E"/>
  <outline>
    <contour>
      <point x="518" y="281" type="line"/>
      <point x="462" y="247"/>
      <point x="418" y="235"/>
      <point x="381" y="235" type="curve" smooth="yes"/>
      <point x="289" y="235"/>
      <point x="239" y="308"/>
      <point x="157" y="308" type="curve" smooth="yes"/>
      <point x="127" y="308"/>
      <point x="92" y="299"/>
      <point x="50" y="272" type="curve"/>
      <point x="50" y="405" type="line"/>
      <point x="95" y="431"/>
      <point x="132" y="440"/>
      <point x="163" y="440" type="curve" smooth="yes"/>
      <point x="250" y="440"/>
      <point x="299" y="367"/>
      <point x="387" y="367" type="curve" smooth="yes"/>
      <point x="422" y="367"/>
      <point x="464" y="379"/>
      <point x="518" y="412" type="curve"/>
    </contour>
  </outline>
</glyph>
<glyph name="exclamdown" format="1">
  <advance width="210"/>
  <unicode hex="00A1"/>
  <outline>
    <contour>
      <point x="26" y="647" type="curve" smooth="yes"/>
      <point x="26" y="689"/>
      <point x="59" y="722"/>
      <point x="101" y="722" type="curve" smooth="yes"/>
      <point x="143" y="722"/>
      <point x="176" y="689"/>
      <point x="176" y="647" type="curve" smooth="yes"/>
      <point x="176" y="605"/>
      <point x="143" y="571"/>
      <point x="101" y="571" type="curve" smooth="yes"/>
      <point x="59" y="571"/>
      <point x="26" y="605"/>
    </contour>
    <contour>
      <point x="38" y="534" type="line"/>
      <point x="167" y="534" type="line"/>
      <point x="167" y="0" type="line"/>
      <point x="38" y="0" type="line"/>
    </contour>
  </outline>
</glyph>
<glyph name="sterling" format="1">
  <advance width="520"/>
  <unicode hex="00A3"/>
  <outline>
    <contour>
      <point x="371" y="520" type="line"/>
      <point x="361" y="551"/>
      <point x="341" y="584"/>
      <point x="297" y="584" type="curve" smooth="yes"/>
      <point x="265" y="584"/>
      <point x="239" y="568"/>
      <point x="239" y="517" type="curve" smooth="yes"/>
      <point x="239" y="396" type="line"/>
      <point x="378" y="396" type="line"/>
      <point x="378" y="289" type="line"/>
      <point x="238" y="289" type="line"/>
      <point x="238" y="108" type="line"/>
      <point x="462" y="108" type="line"/>
      <point x="462" y="0" type="line"/>
      <point x="106" y="0" type="line"/>
      <point x="106" y="288" type="line"/>
      <point x="50" y="288" type="line"/>
      <point x="50" y="395" type="line"/>
      <point x="106" y="395" type="line"/>
      <point x="106" y="514" type="line" smooth="yes"/>
      <point x="106" y="617.414"/>
      <point x="160.382" y="705.008"/>
      <point x="290.777" y="705.008" type="curve" smooth="yes"/>
      <point x="291.516" y="705.008"/>
      <point x="292.257" y="705.006"/>
      <point x="293" y="705" type="curve" smooth="yes"/>
      <point x="321" y="705"/>
      <point x="345" y="700"/>
      <point x="366" y="691" type="curve" smooth="yes"/>
      <point x="424" y="668"/>
      <point x="459" y="618"/>
      <point x="470" y="570" type="curve"/>
    </contour>
  </outline>
</glyph>
<glyph name="currency" format="1">
  <advance width="656"/>
  <unicode hex="00A4"/>
  <outline>
    <contour>
      <point x="351" y="477" type="line"/>
      <point x="351" y="595" type="line"/>
      <point x="357" y="595" type="line" smooth="yes"/>
      <point x="400.368" y="595"/>
      <point x="434.34" y="578.158"/>
      <point x="459.14" y="555.298" type="curve"/>
      <point x="534" y="622" type="line"/>
      <point x="606" y="540" type="line"/>
      <point x="509.997" y="455.615" type="line" smooth="yes"/>
      <point x="509.997" y="455.409"/>
      <point x="510" y="455.204"/>
      <point x="510" y="455" type="curve" smooth="yes"/>
      <point x="510" y="275" type="line" smooth="yes"/>
      <point x="510" y="274.883"/>
      <point x="509.999" y="274.766"/>
      <point x="509.999" y="274.648" type="curve" smooth="yes"/>
      <point x="605" y="190" type="line"/>
      <point x="534" y="109" type="line"/>
      <point x="460.09" y="173.965" type="line"/>
      <point x="435.312" y="150.442"/>
      <point x="401.101" y="133"/>
      <point x="357" y="133" type="curve" smooth="yes"/>
      <point x="351" y="133" type="line"/>
      <point x="351" y="247" type="line"/>
      <point x="357" y="247" type="line" smooth="yes"/>
      <point x="388" y="248"/>
      <point x="393" y="272"/>
      <point x="393" y="274" type="curve" smooth="yes"/>
      <point x="393" y="451" type="line" smooth="yes"/>
      <point x="393" y="454"/>
      <point x="387" y="477"/>
      <point x="357" y="477" type="curve" smooth="yes"/>
    </contour>
    <contour>
      <point x="50" y="540" type="line"/>
      <point x="122" y="622" type="line"/>
      <point x="197.56" y="554.674" type="line"/>
      <point x="223.187" y="577.851"/>
      <point x="258.539" y="595"/>
      <point x="304" y="595" type="curve" smooth="yes"/>
      <point x="310" y="595" type="line"/>
      <point x="310" y="477" type="line"/>
      <point x="304" y="477" type="line" smooth="yes"/>
      <point x="271" y="477"/>
      <point x="266" y="453"/>
      <point x="266" y="452" type="curve" smooth="yes"/>
      <point x="266" y="276" type="line" smooth="yes"/>
      <point x="266" y="273"/>
      <point x="274" y="251"/>
      <point x="304" y="251" type="curve" smooth="yes"/>
      <point x="310" y="251" type="line"/>
      <point x="310" y="133" type="line"/>
      <point x="304" y="133" type="line" smooth="yes"/>
      <point x="257.905" y="133"/>
      <point x="222.375" y="150.852"/>
      <point x="196.789" y="174.738" type="curve"/>
      <point x="122" y="109" type="line"/>
      <point x="51" y="190" type="line"/>
      <point x="146.001" y="274.648" type="line" smooth="yes"/>
      <point x="146.001" y="274.766"/>
      <point x="146" y="274.883"/>
      <point x="146" y="275" type="curve" smooth="yes"/>
      <point x="146" y="455" type="line" smooth="yes"/>
      <point x="146" y="455.204"/>
      <point x="146.003" y="455.409"/>
      <point x="146.003" y="455.615" type="curve" smooth="yes"/>
    </contour>
  </outline>
</glyph>
<glyph name="yen" format="1">
  <advance width="542"/>
  <unicode hex="00A5"/>
  <outline>
    <contour>
      <point x="73" y="698" type="line"/>
      <point x="210" y="698" type="line"/>
      <point x="273" y="485" type="line"/>
      <point x="333" y="698" type="line"/>
      <point x="470" y="698" type="line"/>
      <point x="382" y="408" type="line"/>
      <point x="492" y="408" type="line"/>
      <point x="492" y="350" type="line"/>
      <point x="365" y="350" type="line"/>
      <point x="351" y="295" type="line"/>
      <point x="492" y="295" type="line"/>
      <point x="492" y="236" type="line"/>
      <point x="340" y="236" type="line"/>
      <point x="340" y="0" type="line"/>
      <point x="203" y="0" type="line"/>
      <point x="203" y="238" type="line"/>
      <point x="50" y="238" type="line"/>
      <point x="50" y="295" type="line"/>
      <point x="193" y="295" type="line"/>
      <point x="177" y="351" type="line"/>
      <point x="50" y="351" type="line"/>
      <point x="50" y="409" type="line"/>
      <point x="162" y="409" type="line"/>
    </contour>
  </outline>
</glyph>
<glyph name="brokenbar" format="1">
  <advance width="222"/>
  <unicode hex="00A6"/>
  <outline>
    <contour>
      <point x="50" y="221" type="line"/>
      <point x="172" y="221" type="line"/>
      <point x="172" y="-134" type="line"/>
      <point x="50" y="-134" type="line"/>
    </contour>
    <contour>
      <point x="50" y="754" type="line"/>
      <point x="172" y="754" type="line"/>
      <point x="172" y="399" type="line"/>
      <point x="50" y="399" type="line"/>
    </contour>
  </outline>
</glyph>
<glyph name="copyright" format="1">
  <advance width="859"/>
  <unicode hex="00A9"/>
  <outline>
    <contour>
      <point x="447" y="44" type="line"/>
      <point x="593" y="51"/>
      <point x="717" y="179"/>
      <point x="720" y="332" type="curve" smooth="yes"/>
      <point x="720" y="334"/>
      <point x="720" y="337"/>
      <point x="720" y="339" type="curve" smooth="yes"/>
      <point x="720" y="516"/>
      <point x="576" y="635"/>
      <point x="447" y="636" type="curve"/>
      <point x="447" y="726" type="line"/>
      <point x="595" y="725"/>
      <point x="809" y="589"/>
      <point x="809" y="339" type="curve" smooth="yes"/>
      <point x="809" y="335"/>
      <point x="809" y="331"/>
      <point x="809" y="327" type="curve" smooth="yes"/>
      <point x="803" y="104"/>
      <point x="619" y="-43"/>
      <point x="447" y="-49" type="curve"/>
    </contour>
    <contour>
      <point x="412" y="566" type="curve"/>
      <point x="412" y="476" type="line"/>
      <point x="383" y="476"/>
      <point x="377" y="450"/>
      <point x="377" y="447" type="curve" smooth="yes"/>
      <point x="377" y="231" type="line" smooth="yes"/>
      <point x="377" y="228"/>
      <point x="383" y="203"/>
      <point x="412" y="203" type="curve"/>
      <point x="412" y="112" type="line"/>
      <point x="321" y="112"/>
      <point x="287" y="193"/>
      <point x="287" y="231" type="curve" smooth="yes"/>
      <point x="287" y="447" type="line" smooth="yes"/>
      <point x="287" y="485"/>
      <point x="321" y="566"/>
    </contour>
    <contour>
      <point x="447" y="201" type="line"/>
      <point x="447" y="201"/>
      <point x="468" y="207"/>
      <point x="474" y="222" type="curve" smooth="yes"/>
      <point x="477" y="229"/>
      <point x="477" y="236"/>
      <point x="477" y="245" type="curve" smooth="yes"/>
      <point x="477" y="264" type="line"/>
      <point x="565" y="232" type="line"/>
      <point x="565" y="171"/>
      <point x="506" y="112"/>
      <point x="447" y="112" type="curve"/>
    </contour>
    <contour>
      <point x="447" y="476" type="curve"/>
      <point x="447" y="566" type="line"/>
      <point x="506" y="566"/>
      <point x="565" y="507"/>
      <point x="565" y="446" type="curve"/>
      <point x="477" y="413" type="line"/>
      <point x="477" y="432" type="line" smooth="yes"/>
      <point x="477" y="441"/>
      <point x="477" y="448"/>
      <point x="474" y="456" type="curve" smooth="yes"/>
      <point x="468" y="470"/>
      <point x="447" y="476"/>
    </contour>
    <contour>
      <point x="412" y="44" type="curve"/>
      <point x="412" y="-49" type="line"/>
      <point x="240" y="-43"/>
      <point x="56" y="104"/>
      <point x="50" y="327" type="curve" smooth="yes"/>
      <point x="50" y="331"/>
      <point x="50" y="335"/>
      <point x="50" y="339" type="curve" smooth="yes"/>
      <point x="50" y="589"/>
      <point x="264" y="725"/>
      <point x="412" y="726" type="curve"/>
      <point x="412" y="636" type="line"/>
      <point x="283" y="635"/>
      <point x="139" y="516"/>
      <point x="139" y="339" type="curve" smooth="yes"/>
      <point x="139" y="337"/>
      <point x="139" y="334"/>
      <point x="139" y="332" type="curve" smooth="yes"/>
      <point x="142" y="179"/>
      <point x="266" y="51"/>
    </contour>
  </outline>
</glyph>
<glyph name="logicalnot" format="1">
  <advance width="502"/>
  <unicode hex="00AC"/>
  <outline>
    <contour>
      <point x="476" y="208" type="line"/>
      <point x="358" y="208" type="line"/>
      <point x="358" y="327" type="line"/>
      <point x="26" y="327" type="line"/>
      <point x="26" y="442" type="line"/>
      <point x="476" y="442" type="line"/>
    </contour>
  </outline>
</glyph>
<glyph name="registered" format="1">
  <advance width="404"/>
  <unicode hex="00AE"/>
  <outline>
    <contour>
      <point x="191" y="396" type="curve"/>
      <point x="192" y="354" type="line"/>
      <point x="111" y="355"/>
      <point x="30" y="432"/>
      <point x="30" y="523" type="curve" smooth="yes"/>
      <point x="30" y="524"/>
      <point x="30" y="524"/>
      <point x="30" y="525" type="curve" smooth="yes"/>
      <point x="30" y="649"/>
      <point x="133" y="703"/>
      <point x="193" y="703" type="curve" smooth="yes"/>
      <point x="194" y="703"/>
      <point x="194" y="703"/>
      <point x="195" y="703" type="curve"/>
      <point x="195" y="662" type="line"/>
      <point x="136" y="662"/>
      <point x="70" y="609"/>
      <point x="70" y="526" type="curve" smooth="yes"/>
      <point x="71" y="457"/>
      <point x="126" y="399"/>
    </contour>
    <contour>
      <point x="211" y="396" type="line"/>
      <point x="276" y="399"/>
      <point x="332" y="456"/>
      <point x="334" y="525" type="curve" smooth="yes"/>
      <point x="334" y="526"/>
      <point x="334" y="526"/>
      <point x="334" y="527" type="curve" smooth="yes"/>
      <point x="334" y="608"/>
      <point x="270" y="662"/>
      <point x="211" y="662" type="curve"/>
      <point x="211" y="703" type="line"/>
      <point x="277" y="702"/>
      <point x="374" y="641"/>
      <point x="374" y="528" type="curve" smooth="yes"/>
      <point x="374" y="526"/>
      <point x="374" y="525"/>
      <point x="374" y="523" type="curve" smooth="yes"/>
      <point x="374" y="423"/>
      <point x="288" y="357"/>
      <point x="211" y="354" type="curve"/>
    </contour>
    <contour>
      <point x="206" y="547" type="line"/>
      <point x="210" y="547" type="line" smooth="yes"/>
      <point x="227" y="547"/>
      <point x="234" y="557"/>
      <point x="234" y="568" type="curve" smooth="yes"/>
      <point x="234" y="582"/>
      <point x="224" y="591"/>
      <point x="210" y="591" type="curve" smooth="yes"/>
      <point x="206" y="591" type="line"/>
      <point x="206" y="628" type="line"/>
      <point x="248" y="628"/>
      <point x="270" y="604"/>
      <point x="270" y="570" type="curve" smooth="yes"/>
      <point x="270" y="551"/>
      <point x="264" y="538"/>
      <point x="251" y="530" type="curve"/>
      <point x="261" y="522"/>
      <point x="269" y="506"/>
      <point x="270" y="492" type="curve" smooth="yes"/>
      <point x="270" y="431" type="line"/>
      <point x="235" y="431" type="line"/>
      <point x="235" y="481" type="line" smooth="yes"/>
      <point x="235" y="504"/>
      <point x="226" y="511"/>
      <point x="206" y="511" type="curve"/>
    </contour>
    <contour>
      <point x="151" y="627" type="line"/>
      <point x="190" y="627" type="line"/>
      <point x="190" y="430" type="line"/>
      <point x="151" y="430" type="line"/>
    </contour>
  </outline>
</glyph>
<glyph name="degree" format="1">
  <advance width="282"/>
  <unicode hex="00B0"/>
  <outline>
    <contour>
      <point x="102" y="583.2" type="curve" smooth="yes"/>
      <point x="102" y="561.6"/>
      <point x="118.8" y="544.8"/>
      <point x="140.4" y="544.8" type="curve" smooth="yes"/>
      <point x="162" y="544.8"/>
      <point x="178.8" y="561.6"/>
      <point x="178.8" y="583.2" type="curve" smooth="yes"/>
      <point x="178.8" y="604.8"/>
      <point x="162" y="621.6"/>
      <point x="140.4" y="621.6" type="curve" smooth="yes"/>
      <point x="118.8" y="621.6"/>
      <point x="102" y="604.8"/>
    </contour>
    <contour>
      <point x="25.2002" y="583.2" type="curve" smooth="yes"/>
      <point x="25.2002" y="646.8"/>
      <point x="76.7998" y="698.4"/>
      <point x="140.4" y="698.4" type="curve" smooth="yes"/>
      <point x="204" y="698.4"/>
      <point x="255.6" y="646.8"/>
      <point x="255.6" y="583.2" type="curve" smooth="yes"/>
      <point x="255.6" y="519.6"/>
      <point x="204" y="468"/>
      <point x="140.4" y="468" type="curve" smooth="yes"/>
      <point x="76.7998" y="468"/>
      <point x="25.2002" y="519.6"/>
    </contour>
  </outline>
</glyph>
<glyph name="plusminus" format="1">
  <advance width="575"/>
  <unicode hex="00B1"/>
  <outline>
    <contour>
      <point x="476" y="167" type="line"/>
      <point x="476" y="40" type="line"/>
      <point x="100" y="40" type="line"/>
      <point x="100" y="167" type="line"/>
    </contour>
    <component base="plus" yOffset="161"/>
  </outline>
</glyph>
<glyph name="uni00B2" format="1">
  <advance width="245"/>
  <unicode hex="00B2"/>
  <outline>
    <contour>
      <point x="102" y="638" type="line" smooth="yes"/>
      <point x="98" y="636"/>
      <point x="85" y="629"/>
      <point x="85" y="608" type="curve" smooth="yes"/>
      <point x="85" y="604" type="line"/>
      <point x="26" y="616" type="line"/>
      <point x="26" y="619" type="line"/>
      <point x="30" y="657"/>
      <point x="58" y="695"/>
      <point x="101" y="700" type="curve"/>
      <point x="105" y="700" type="line"/>
      <point x="105" y="645" type="line"/>
      <point x="105" y="638" type="line"/>
    </contour>
    <contour>
      <point x="216" y="451" type="line"/>
      <point x="216" y="389" type="line"/>
      <point x="34" y="389" type="line"/>
      <point x="34" y="451" type="line"/>
    </contour>
    <contour>
      <point x="122" y="639" type="line"/>
      <point x="122" y="700" type="line"/>
      <point x="129" y="700" type="line" smooth="yes"/>
      <point x="198" y="700"/>
      <point x="219" y="643"/>
      <point x="219" y="609" type="curve" smooth="yes"/>
      <point x="219" y="560"/>
      <point x="196" y="546"/>
      <point x="170" y="527" type="curve" smooth="yes"/>
      <point x="139" y="505"/>
      <point x="123" y="493"/>
      <point x="109" y="471" type="curve" smooth="yes"/>
      <point x="108" y="469" type="line"/>
      <point x="34" y="469" type="line"/>
      <point x="37" y="475" type="line" smooth="yes"/>
      <point x="63" y="529"/>
      <point x="107" y="553"/>
      <point x="119" y="563" type="curve" smooth="yes"/>
      <point x="139" y="580"/>
      <point x="159" y="584"/>
      <point x="159" y="608" type="curve" smooth="yes"/>
      <point x="159" y="629"/>
      <point x="148" y="638"/>
      <point x="125" y="639" type="curve" smooth="yes"/>
    </contour>
  </outline>
</glyph>
<glyph name="acute" format="1">
  <advance width="263"/>
  <unicode hex="00B4"/>
  <outline>
    <contour>
      <point x="141" y="605" type="line"/>
      <point x="50" y="605" type="line"/>
      <point x="87" y="757" type="line"/>
      <point x="214" y="757" type="line"/>
    </contour>
  </outline>
</glyph>
<glyph name="mu" format="1">
  <advance width="468"/>
  <unicode hex="00B5"/>
  <outline>
    <contour>
      <point x="26" y="698" type="line"/>
      <point x="150" y="698" type="line"/>
      <point x="150" y="356" type="line"/>
      <point x="150" y="326" type="line" smooth="yes"/>
      <point x="150" y="323"/>
      <point x="156" y="300"/>
      <point x="187" y="300" type="curve" smooth="yes"/>
      <point x="192" y="300" type="line"/>
      <point x="192" y="179" type="line"/>
      <point x="187" y="179" type="line" smooth="yes"/>
      <point x="174" y="179"/>
      <point x="162" y="180"/>
      <point x="150" y="183" type="curve"/>
      <point x="150" y="0" type="line"/>
      <point x="26" y="0" type="line"/>
      <point x="26" y="321" type="line"/>
      <point x="26" y="356" type="line"/>
    </contour>
    <contour>
      <point x="276" y="700" type="line"/>
      <point x="400" y="700" type="line"/>
      <point x="400" y="698" type="line"/>
      <point x="400" y="328" type="line" smooth="yes"/>
      <point x="400" y="325"/>
      <point x="406" y="302"/>
      <point x="437" y="302" type="curve" smooth="yes"/>
      <point x="442" y="302" type="line"/>
      <point x="442" y="181" type="line"/>
      <point x="437" y="181" type="line" smooth="yes"/>
      <point x="397" y="181"/>
      <point x="364" y="194"/>
      <point x="339" y="213" type="curve"/>
      <point x="313" y="193"/>
      <point x="280" y="179"/>
      <point x="239" y="179" type="curve" smooth="yes"/>
      <point x="234" y="179" type="line"/>
      <point x="234" y="300" type="line"/>
      <point x="239" y="300" type="line" smooth="yes"/>
      <point x="270" y="300"/>
      <point x="276" y="324"/>
      <point x="276" y="326" type="curve" smooth="yes"/>
      <point x="276" y="698" type="line"/>
    </contour>
  </outline>
</glyph>
<glyph name="cedilla" format="1">
  <advance width="219"/>
  <unicode hex="00B8"/>
  <outline>
    <contour>
      <point x="102" y="123" type="curve"/>
      <point x="194" y="123" type="line"/>
      <point x="194" y="47"/>
      <point x="153" y="-36"/>
      <point x="26" y="-36" type="curve"/>
      <point x="26" y="55" type="line"/>
      <point x="62" y="55"/>
      <point x="102" y="68"/>
    </contour>
  </outline>
</glyph>
<glyph name="uni00B9" format="1">
  <advance width="186"/>
  <unicode hex="00B9"/>
  <outline>
    <contour>
      <point x="93" y="610" type="line"/>
      <point x="60" y="584" type="line"/>
      <point x="60" y="673" type="line"/>
      <point x="95" y="700" type="line"/>
      <point x="161" y="700" type="line"/>
      <point x="161" y="391" type="line"/>
      <point x="93" y="391" type="line"/>
    </contour>
  </outline>
</glyph>
<glyph name="ordmasculine" format="1">
  <advance width="230"/>
  <unicode hex="00BA"/>
  <outline>
    <contour>
      <point x="26" y="432" type="line"/>
      <point x="204" y="432" type="line"/>
      <point x="204" y="361" type="line"/>
      <point x="26" y="361" type="line"/>
    </contour>
    <contour>
      <point x="123" y="645" type="line"/>
      <point x="123" y="700" type="line"/>
      <point x="127" y="700" type="line" smooth="yes"/>
      <point x="173" y="700"/>
      <point x="196" y="658"/>
      <point x="196" y="637" type="curve" smooth="yes"/>
      <point x="196" y="533" type="line" smooth="yes"/>
      <point x="196" y="513"/>
      <point x="174" y="470"/>
      <point x="127" y="470" type="curve" smooth="yes"/>
      <point x="123" y="470" type="line"/>
      <point x="123" y="523" type="line"/>
      <point x="127" y="523" type="line" smooth="yes"/>
      <point x="139" y="523"/>
      <point x="141" y="532"/>
      <point x="141" y="533" type="curve" smooth="yes"/>
      <point x="141" y="635" type="line" smooth="yes"/>
      <point x="141" y="636"/>
      <point x="139" y="645"/>
      <point x="127" y="645" type="curve" smooth="yes"/>
    </contour>
    <contour>
      <point x="32" y="637" type="line" smooth="yes"/>
      <point x="32" y="658"/>
      <point x="55" y="700"/>
      <point x="103" y="700" type="curve" smooth="yes"/>
      <point x="108" y="700" type="line"/>
      <point x="108" y="645" type="line"/>
      <point x="103" y="645" type="line" smooth="yes"/>
      <point x="90" y="645"/>
      <point x="88" y="636"/>
      <point x="88" y="635" type="curve" smooth="yes"/>
      <point x="88" y="534" type="line" smooth="yes"/>
      <point x="88" y="533"/>
      <point x="91" y="525"/>
      <point x="103" y="525" type="curve" smooth="yes"/>
      <point x="108" y="525" type="line"/>
      <point x="108" y="470" type="line"/>
      <point x="103" y="470" type="line" smooth="yes"/>
      <point x="54" y="470"/>
      <point x="32" y="513"/>
      <point x="32" y="533" type="curve" smooth="yes"/>
    </contour>
  </outline>
</glyph>
<glyph name="onehalf" format="1">
  <advance width="581"/>
  <unicode hex="00BD"/>
  <outline>
    <contour>
      <point x="422" y="288" type="line" smooth="yes"/>
      <point x="420" y="287"/>
      <point x="400" y="278"/>
      <point x="400" y="250" type="curve" smooth="yes"/>
      <point x="400" y="248" type="line"/>
      <point x="337" y="261" type="line"/>
      <point x="338" y="263" type="line"/>
      <point x="343" y="306"/>
      <point x="374" y="347"/>
      <point x="422" y="353" type="curve"/>
      <point x="424" y="354" type="line"/>
      <point x="424" y="290" type="line"/>
      <point x="424" y="288" type="line"/>
    </contour>
    <contour>
      <point x="26" y="-2" type="line"/>
      <point x="458" y="702" type="line"/>
      <point x="534" y="702" type="line"/>
      <point x="109" y="-2" type="line"/>
    </contour>
    <contour>
      <point x="551" y="65" type="line"/>
      <point x="551" y="-1" type="line"/>
      <point x="346" y="-1" type="line"/>
      <point x="346" y="65" type="line"/>
    </contour>
    <contour>
      <point x="448" y="288" type="line"/>
      <point x="448" y="354" type="line"/>
      <point x="453" y="354" type="line" smooth="yes"/>
      <point x="531" y="354"/>
      <point x="553" y="290"/>
      <point x="554" y="251" type="curve" smooth="yes"/>
      <point x="554" y="197"/>
      <point x="529" y="180"/>
      <point x="499" y="159" type="curve" smooth="yes"/>
      <point x="464" y="134"/>
      <point x="445" y="119"/>
      <point x="428" y="93" type="curve"/>
      <point x="427" y="92" type="line"/>
      <point x="348" y="92" type="line"/>
      <point x="349" y="94" type="line" smooth="yes"/>
      <point x="379" y="156"/>
      <point x="429" y="184"/>
      <point x="444" y="196" type="curve" smooth="yes"/>
      <point x="467" y="215"/>
      <point x="490" y="220"/>
      <point x="490" y="251" type="curve" smooth="yes"/>
      <point x="490" y="275"/>
      <point x="476" y="287"/>
      <point x="449" y="288" type="curve" smooth="yes"/>
    </contour>
    <contour>
      <point x="114" y="597" type="line"/>
      <point x="76" y="567" type="line"/>
      <point x="76" y="671" type="line"/>
      <point x="114" y="702" type="line"/>
      <point x="182" y="702" type="line"/>
      <point x="182" y="349" type="line"/>
      <point x="114" y="349" type="line"/>
    </contour>
  </outline>
</glyph>
<glyph name="threequarters" format="1">
  <advance width="584"/>
  <unicode hex="00BE"/>
  <outline>
    <contour>
      <point x="83" y="431" type="line" smooth="yes"/>
      <point x="90" y="421"/>
      <point x="99" y="415"/>
      <point x="113" y="414" type="curve" smooth="yes"/>
      <point x="114" y="414" type="line"/>
      <point x="114" y="348" type="line"/>
      <point x="113" y="348" type="line" smooth="yes"/>
      <point x="74" y="348"/>
      <point x="44" y="364"/>
      <point x="27" y="398" type="curve"/>
      <point x="26" y="399" type="line"/>
      <point x="82" y="432" type="line"/>
    </contour>
    <contour>
      <point x="142" y="412" type="line" smooth="yes"/>
      <point x="163" y="412"/>
      <point x="177" y="431"/>
      <point x="177" y="450" type="curve" smooth="yes"/>
      <point x="177" y="479"/>
      <point x="167" y="492"/>
      <point x="108" y="492" type="curve"/>
      <point x="108" y="557" type="line"/>
      <point x="109" y="557" type="line" smooth="yes"/>
      <point x="169" y="557"/>
      <point x="177" y="571"/>
      <point x="177" y="600" type="curve" smooth="yes"/>
      <point x="177" y="626"/>
      <point x="157" y="636"/>
      <point x="143" y="636" type="curve" smooth="yes"/>
      <point x="140" y="636" type="line"/>
      <point x="140" y="701" type="line"/>
      <point x="141" y="700" type="line"/>
      <point x="209" y="698"/>
      <point x="243" y="642"/>
      <point x="243" y="604" type="curve" smooth="yes"/>
      <point x="243" y="557"/>
      <point x="229" y="534"/>
      <point x="214" y="525" type="curve"/>
      <point x="229" y="514"/>
      <point x="245" y="491"/>
      <point x="245" y="450" type="curve" smooth="yes"/>
      <point x="245" y="387"/>
      <point x="185" y="348"/>
      <point x="144" y="348" type="curve" smooth="yes"/>
      <point x="141" y="348" type="line"/>
      <point x="141" y="412" type="line"/>
    </contour>
    <contour>
      <point x="82" y="616" type="line"/>
      <point x="26" y="649" type="line"/>
      <point x="27" y="651" type="line" smooth="yes"/>
      <point x="44" y="679"/>
      <point x="74" y="700"/>
      <point x="114" y="700" type="curve"/>
      <point x="114" y="635" type="line"/>
      <point x="113" y="635" type="line" smooth="yes"/>
      <point x="99" y="634"/>
      <point x="90" y="628"/>
      <point x="83" y="618" type="curve" smooth="yes"/>
    </contour>
    <contour>
      <point x="512" y="137" type="line"/>
      <point x="512" y="71" type="line"/>
      <point x="485" y="71" type="line"/>
      <point x="485" y="-1" type="line"/>
      <point x="417" y="-1" type="line"/>
      <point x="417" y="352" type="line"/>
      <point x="485" y="352" type="line"/>
      <point x="485" y="137" type="line"/>
    </contour>
    <contour>
      <point x="392" y="137" type="line"/>
      <point x="392" y="71" type="line"/>
      <point x="294" y="71" type="line"/>
      <point x="294" y="137" type="line"/>
      <point x="392" y="305" type="line"/>
      <point x="392" y="175" type="line"/>
      <point x="370" y="137" type="line"/>
    </contour>
    <contour>
      <point x="50" y="-2" type="line"/>
      <point x="482" y="702" type="line"/>
      <point x="558" y="702" type="line"/>
      <point x="133" y="-2" type="line"/>
    </contour>
  </outline>
</glyph>
<glyph name="questiondown" format="1">
  <advance width="460"/>
  <unicode hex="00BF"/>
  <outline>
    <contour>
      <point x="112" y="163" type="line"/>
      <point x="133" y="135"/>
      <point x="167" y="114"/>
      <point x="210" y="114" type="curve" smooth="yes"/>
      <point x="257" y="114"/>
      <point x="302" y="144"/>
      <point x="302" y="196" type="curve" smooth="yes"/>
      <point x="302" y="289"/>
      <point x="251" y="301"/>
      <point x="134" y="303" type="curve"/>
      <point x="134" y="523" type="line"/>
      <point x="263" y="523" type="line"/>
      <point x="263" y="413" type="line"/>
      <point x="263" y="413"/>
      <point x="430" y="400"/>
      <point x="430" y="208" type="curve" smooth="yes"/>
      <point x="430" y="72"/>
      <point x="349" y="-14"/>
      <point x="218" y="-14" type="curve" smooth="yes"/>
      <point x="110" y="-14"/>
      <point x="60" y="40"/>
      <point x="30" y="78" type="curve"/>
    </contour>
    <contour>
      <point x="122" y="636" type="curve" smooth="yes"/>
      <point x="122" y="678"/>
      <point x="155" y="711"/>
      <point x="197" y="711" type="curve" smooth="yes"/>
      <point x="239" y="711"/>
      <point x="273" y="678"/>
      <point x="273" y="636" type="curve" smooth="yes"/>
      <point x="273" y="594"/>
      <point x="239" y="560"/>
      <point x="197" y="560" type="curve" smooth="yes"/>
      <point x="155" y="560"/>
      <point x="122" y="594"/>
    </contour>
  </outline>
</glyph>
<glyph name="Aring" format="1">
  <advance width="516"/>
  <unicode hex="00C5"/>
  <outline>
    <contour>
      <point x="155" y="582" type="line"/>
      <point x="170" y="582" type="line"/>
      <point x="230" y="302" type="line"/>
      <point x="164" y="0" type="line"/>
      <point x="26" y="0" type="line"/>
    </contour>
    <contour>
      <point x="237" y="765" type="curve" smooth="yes"/>
      <point x="237" y="747"/>
      <point x="251" y="733"/>
      <point x="269" y="733" type="curve" smooth="yes"/>
      <point x="287" y="733"/>
      <point x="301" y="747"/>
      <point x="301" y="765" type="curve" smooth="yes"/>
      <point x="301" y="783"/>
      <point x="287" y="797"/>
      <point x="269" y="797" type="curve" smooth="yes"/>
      <point x="251" y="797"/>
      <point x="237" y="783"/>
    </contour>
    <contour>
      <point x="173" y="765" type="curve" smooth="yes"/>
      <point x="173" y="818"/>
      <point x="216" y="861"/>
      <point x="269" y="861" type="curve" smooth="yes"/>
      <point x="322" y="861"/>
      <point x="365" y="818"/>
      <point x="365" y="765" type="curve" smooth="yes"/>
      <point x="365" y="739"/>
      <point x="355" y="716"/>
      <point x="339" y="699" type="curve"/>
      <point x="490" y="0" type="line"/>
      <point x="353" y="0" type="line"/>
      <point x="333" y="85" type="line"/>
      <point x="239" y="85" type="line"/>
      <point x="269" y="223" type="line"/>
      <point x="305" y="223" type="line"/>
      <point x="200" y="698" type="line"/>
      <point x="183" y="715"/>
      <point x="173" y="739"/>
    </contour>
  </outline>
</glyph>
<glyph name="Eth" format="1">
  <advance width="501"/>
  <unicode hex="00D0"/>
  <outline>
    <contour>
      <point x="278" y="0" type="curve"/>
      <point x="278" y="141" type="line"/>
      <point x="284" y="141"/>
      <point x="333" y="149"/>
      <point x="334" y="197" type="curve" smooth="yes"/>
      <point x="334" y="503" type="line" smooth="yes"/>
      <point x="334" y="508"/>
      <point x="326" y="558"/>
      <point x="278" y="559" type="curve"/>
      <point x="278" y="700" type="line"/>
      <point x="421" y="700"/>
      <point x="475" y="566"/>
      <point x="475" y="503" type="curve" smooth="yes"/>
      <point x="475" y="197" type="line" smooth="yes"/>
      <point x="475" y="50"/>
      <point x="338" y="0"/>
    </contour>
    <contour>
      <point x="224" y="420" type="line"/>
      <point x="280" y="420" type="line"/>
      <point x="280" y="292" type="line"/>
      <point x="224" y="292" type="line"/>
      <point x="224" y="0" type="line"/>
      <point x="83" y="0" type="line"/>
      <point x="83" y="292" type="line"/>
      <point x="26" y="292" type="line"/>
      <point x="26" y="420" type="line"/>
      <point x="83" y="420" type="line"/>
      <point x="83" y="700" type="line"/>
      <point x="224" y="700" type="line"/>
    </contour>
  </outline>
</glyph>
<glyph name="Oslash" format="1">
  <advance width="662"/>
  <unicode hex="00D8"/>
  <outline>
    <contour>
      <point x="584" y="658" type="line"/>
      <point x="662" y="570" type="line"/>
      <point x="556" y="474.346" type="line"/>
      <point x="556" y="195" type="line" smooth="yes"/>
      <point x="556" y="51"/>
      <point x="419" y="-5"/>
      <point x="359" y="-5" type="curve"/>
      <point x="359" y="137" type="line"/>
      <point x="364" y="137"/>
      <point x="414" y="149"/>
      <point x="415" y="195" type="curve" smooth="yes"/>
      <point x="415" y="347.108" type="line"/>
      <point x="249" y="197.31" type="line"/>
      <point x="249" y="195" type="line" smooth="yes"/>
      <point x="249" y="149"/>
      <point x="299" y="137"/>
      <point x="304" y="137" type="curve"/>
      <point x="304" y="-5" type="line"/>
      <point x="260.707" y="-5"/>
      <point x="177.846" y="24.1556"/>
      <point x="135.057" y="94.488" type="curve"/>
      <point x="78" y="43" type="line"/>
      <point x="0" y="131" type="line"/>
      <point x="108" y="228.459" type="line"/>
      <point x="108" y="524" type="line" smooth="yes"/>
      <point x="108" y="584"/>
      <point x="173" y="705"/>
      <point x="305" y="705" type="curve"/>
      <point x="305" y="564" type="line"/>
      <point x="259" y="563"/>
      <point x="249" y="513"/>
      <point x="249" y="508" type="curve" smooth="yes"/>
      <point x="249" y="355.697" type="line"/>
      <point x="415" y="505.495" type="line"/>
      <point x="415" y="508" type="line" smooth="yes"/>
      <point x="415" y="513"/>
      <point x="405" y="563"/>
      <point x="359" y="564" type="curve"/>
      <point x="359" y="705" type="line"/>
      <point x="440.715" y="705"/>
      <point x="497.139" y="657.53"/>
      <point x="528.028" y="607.491" type="curve"/>
    </contour>
  </outline>
</glyph>
<glyph name="Thorn" format="1">
  <advance width="474"/>
  <unicode hex="00DE"/>
  <outline>
    <contour>
      <point x="26" y="700" type="line"/>
      <point x="167" y="700" type="line"/>
      <point x="167" y="0" type="line"/>
      <point x="26" y="0" type="line"/>
    </contour>
    <contour>
      <point x="221" y="347" type="line"/>
      <point x="254" y="347" type="line" smooth="yes"/>
      <point x="261" y="347"/>
      <point x="305" y="348"/>
      <point x="305" y="398" type="curve" smooth="yes"/>
      <point x="305" y="449"/>
      <point x="263" y="451"/>
      <point x="254" y="451" type="curve" smooth="yes"/>
      <point x="221" y="451" type="line"/>
      <point x="221" y="590" type="line"/>
      <point x="402" y="590"/>
      <point x="448" y="516"/>
      <point x="448" y="402" type="curve" smooth="yes"/>
      <point x="448" y="259"/>
      <point x="378" y="208"/>
      <point x="221" y="208" type="curve"/>
    </contour>
  </outline>
</glyph>
<glyph name="germandbls" format="1">
  <advance width="522"/>
  <unicode hex="00DF"/>
  <outline>
    <contour>
      <point x="155" y="0" type="line"/>
      <point x="26" y="0" type="line"/>
      <point x="26" y="457" type="line" smooth="yes"/>
      <point x="27" y="531"/>
      <point x="16" y="705"/>
      <point x="226" y="705" type="curve" smooth="yes"/>
      <point x="396" y="705"/>
      <point x="406" y="575"/>
      <point x="406" y="518" type="curve" smooth="yes"/>
      <point x="406" y="405" type="line"/>
      <point x="342" y="406" type="line"/>
      <point x="308" y="400"/>
      <point x="305" y="368"/>
      <point x="305" y="361" type="curve" smooth="yes"/>
      <point x="305" y="349"/>
      <point x="310" y="326"/>
      <point x="391" y="299" type="curve" smooth="yes"/>
      <point x="441" y="282"/>
      <point x="496" y="243"/>
      <point x="496" y="160" type="curve" smooth="yes"/>
      <point x="496" y="57"/>
      <point x="420" y="0"/>
      <point x="327" y="0" type="curve" smooth="yes"/>
      <point x="199" y="0" type="line"/>
      <point x="199" y="109" type="line"/>
      <point x="327" y="109" type="line" smooth="yes"/>
      <point x="342" y="110"/>
      <point x="379" y="120"/>
      <point x="379" y="153" type="curve" smooth="yes"/>
      <point x="379" y="198"/>
      <point x="331" y="200"/>
      <point x="276" y="228" type="curve" smooth="yes"/>
      <point x="228" y="252"/>
      <point x="191" y="287"/>
      <point x="191" y="371" type="curve" smooth="yes"/>
      <point x="191" y="446"/>
      <point x="244" y="489"/>
      <point x="294" y="507" type="curve"/>
      <point x="294" y="519" type="line" smooth="yes"/>
      <point x="294" y="572"/>
      <point x="259" y="586"/>
      <point x="225" y="586" type="curve" smooth="yes"/>
      <point x="174" y="586"/>
      <point x="155" y="554"/>
      <point x="155" y="498" type="curve" smooth="yes"/>
    </contour>
  </outline>
</glyph>
<glyph name="igrave" format="1">
  <advance width="199"/>
  <unicode hex="00EC"/>
  <outline>
    <contour>
      <point x="161" y="0" type="line"/>
      <point x="39" y="0" type="line"/>
      <point x="39" y="516" type="line"/>
      <point x="161" y="516" type="line"/>
    </contour>
    <contour>
      <point x="54" y="577" type="line"/>
      <point x="-20" y="729" type="line"/>
      <point x="108" y="729" type="line"/>
      <point x="144" y="577" type="line"/>
    </contour>
  </outline>
</glyph>
<glyph name="iacute" format="1">
  <advance width="199"/>
  <unicode hex="00ED"/>
  <outline>
    <contour>
      <point x="144" y="577" type="line"/>
      <point x="54" y="577" type="line"/>
      <point x="90" y="729" type="line"/>
      <point x="218" y="729" type="line"/>
    </contour>
    <contour>
      <point x="161" y="0" type="line"/>
      <point x="39" y="0" type="line"/>
      <point x="39" y="516" type="line"/>
      <point x="161" y="516" type="line"/>
    </contour>
  </outline>
</glyph>
<glyph name="idieresis" format="1">
  <advance width="199"/>
  <unicode hex="00EF"/>
  <outline>
    <contour>
      <point x="-61" y="651" type="curve" smooth="yes"/>
      <point x="-61" y="693"/>
      <point x="-28" y="727"/>
      <point x="14" y="727" type="curve" smooth="yes"/>
      <point x="56" y="727"/>
      <point x="89" y="693"/>
      <point x="89" y="651" type="curve" smooth="yes"/>
      <point x="89" y="609"/>
      <point x="56" y="576"/>
      <point x="14" y="576" type="curve" smooth="yes"/>
      <point x="-28" y="576"/>
      <point x="-61" y="609"/>
    </contour>
    <contour>
      <point x="109" y="651" type="curve" smooth="yes"/>
      <point x="109" y="693"/>
      <point x="142" y="727"/>
      <point x="184" y="727" type="curve" smooth="yes"/>
      <point x="226" y="727"/>
      <point x="259" y="693"/>
      <point x="259" y="651" type="curve" smooth="yes"/>
      <point x="259" y="609"/>
      <point x="226" y="576"/>
      <point x="184" y="576" type="curve" smooth="yes"/>
      <point x="142" y="576"/>
      <point x="109" y="609"/>
    </contour>
    <contour>
      <point x="161" y="0" type="line"/>
      <point x="39" y="0" type="line"/>
      <point x="39" y="516" type="line"/>
      <point x="161" y="516" type="line"/>
    </contour>
  </outline>
</glyph>
<glyph name="divide" format="1">
  <advance width="650"/>
  <unicode hex="00F7"/>
  <outline>
    <contour>
      <point x="550" y="355" type="line"/>
      <point x="550" y="228" type="line"/>
      <point x="100" y="228" type="line"/>
      <point x="100" y="355" type="line"/>
    </contour>
    <component base="period" xOffset="196" yOffset="415"/>
    <component base="period" xOffset="196" yOffset="62"/>
  </outline>
</glyph>
<glyph name="oslash" format="1">
  <advance width="498"/>
  <unicode hex="00F8"/>
  <outline>
    <contour>
      <point x="445" y="490" type="line"/>
      <point x="498" y="430" type="line"/>
      <point x="431" y="368.571" type="line"/>
      <point x="431" y="141" type="line" smooth="yes"/>
      <point x="431" y="96"/>
      <point x="382" y="-1"/>
      <point x="278" y="-1" type="curve" smooth="yes"/>
      <point x="272" y="-1" type="line"/>
      <point x="272" y="117" type="line"/>
      <point x="278" y="117" type="line" smooth="yes"/>
      <point x="309" y="118"/>
      <point x="314" y="141"/>
      <point x="314" y="152" type="curve" smooth="yes"/>
      <point x="314" y="261.299" type="line"/>
      <point x="187.611" y="145.418" type="line"/>
      <point x="189.96" y="129.918"/>
      <point x="199.585" y="117"/>
      <point x="225" y="117" type="curve" smooth="yes"/>
      <point x="231" y="117" type="line"/>
      <point x="231" y="-1" type="line"/>
      <point x="225" y="-1" type="line" smooth="yes"/>
      <point x="165.356" y="-1"/>
      <point x="123.402" y="28.8889"/>
      <point x="97.789" y="63.065" type="curve"/>
      <point x="53" y="22" type="line"/>
      <point x="0" y="82" type="line"/>
      <point x="67" y="143.429" type="line"/>
      <point x="67" y="376" type="line" smooth="yes"/>
      <point x="67" y="421"/>
      <point x="118" y="516"/>
      <point x="225" y="516" type="curve" smooth="yes"/>
      <point x="231" y="516" type="line"/>
      <point x="231" y="398" type="line"/>
      <point x="225" y="398" type="line" smooth="yes"/>
      <point x="192" y="398"/>
      <point x="187" y="373"/>
      <point x="187" y="363" type="curve" smooth="yes"/>
      <point x="187" y="253.452" type="line"/>
      <point x="313.662" y="369.583" type="line"/>
      <point x="312.055" y="384.341"/>
      <point x="304.133" y="398"/>
      <point x="278" y="398" type="curve" smooth="yes"/>
      <point x="272" y="398" type="line"/>
      <point x="272" y="516" type="line"/>
      <point x="278" y="516" type="line" smooth="yes"/>
      <point x="336.283" y="516"/>
      <point x="377.596" y="485.582"/>
      <point x="402.482" y="451.017" type="curve"/>
    </contour>
  </outline>
</glyph>
<glyph name="lslash" format="1">
  <advance width="424"/>
  <unicode hex="0142"/>
  <outline>
    <contour>
      <point x="326" y="536" type="line"/>
      <point x="398" y="443" type="line"/>
      <point x="98" y="209" type="line"/>
      <point x="26" y="302" type="line"/>
    </contour>
    <component base="l" xOffset="117"/>
  </outline>
</glyph>
<glyph name="OE" format="1">
  <advance width="724"/>
  <unicode hex="0152"/>
  <outline>
    <contour>
      <point x="222" y="0" type="line"/>
      <point x="162" y="0"/>
      <point x="26" y="56"/>
      <point x="26" y="200" type="curve" smooth="yes"/>
      <point x="26" y="519" type="line" smooth="yes"/>
      <point x="26" y="579"/>
      <point x="91" y="700"/>
      <point x="223" y="700" type="curve"/>
      <point x="223" y="559" type="line"/>
      <point x="177" y="558"/>
      <point x="167" y="508"/>
      <point x="167" y="503" type="curve" smooth="yes"/>
      <point x="167" y="200" type="line" smooth="yes"/>
      <point x="167" y="154"/>
      <point x="217" y="142"/>
      <point x="222" y="142" type="curve"/>
    </contour>
    <contour>
      <point x="698" y="141" type="line"/>
      <point x="698" y="0" type="line"/>
      <point x="277" y="0" type="line"/>
      <point x="277" y="142" type="line"/>
      <point x="334" y="142" type="line"/>
      <point x="334" y="559" type="line"/>
      <point x="277" y="559" type="line"/>
      <point x="277" y="700" type="line"/>
      <point x="698" y="700" type="line"/>
      <point x="698" y="560" type="line"/>
      <point x="475" y="560" type="line"/>
      <point x="475" y="418" type="line"/>
      <point x="604" y="418" type="line"/>
      <point x="604" y="277" type="line"/>
      <point x="475" y="277" type="line"/>
      <point x="475" y="141" type="line"/>
    </contour>
  </outline>
</glyph>
<glyph name="circumflex" format="1">
  <advance width="270"/>
  <unicode hex="02C6"/>
  <outline>
    <contour>
      <point x="26" y="514" type="line"/>
      <point x="101" y="666" type="line"/>
      <point x="167" y="666" type="line"/>
      <point x="244" y="514" type="line"/>
      <point x="162" y="514" type="line"/>
      <point x="134" y="571" type="line"/>
      <point x="107" y="514" type="line"/>
    </contour>
  </outline>
</glyph>
<glyph name="caron" format="1">
  <advance width="270"/>
  <unicode hex="02C7"/>
  <outline>
    <contour>
      <point x="26" y="666" type="line"/>
      <point x="107" y="666" type="line"/>
      <point x="134" y="609" type="line"/>
      <point x="162" y="666" type="line"/>
      <point x="244" y="666" type="line"/>
      <point x="167" y="514" type="line"/>
      <point x="101" y="514" type="line"/>
    </contour>
  </outline>
</glyph>
<glyph name="hungarumlaut" format="1">
  <advance width="336"/>
  <unicode hex="02DD"/>
  <outline>
    <contour>
      <point x="252" y="605" type="line"/>
      <point x="169" y="605" type="line"/>
      <point x="198" y="757" type="line"/>
      <point x="310" y="757" type="line"/>
    </contour>
    <contour>
      <point x="109" y="605" type="line"/>
      <point x="26" y="605" type="line"/>
      <point x="55" y="757" type="line"/>
      <point x="167" y="757" type="line"/>
    </contour>
  </outline>
</glyph>
<glyph name="endash" format="1">
  <advance width="532"/>
  <unicode hex="2013"/>
  <outline>
    <contour>
      <point x="505.899" y="357" type="line"/>
      <point x="505.899" y="230" type="line"/>
      <point x="25.8994" y="230" type="line"/>
      <point x="25.8994" y="357" type="line"/>
    </contour>
  </outline>
</glyph>
<glyph name="emdash" format="1">
  <advance width="906"/>
  <unicode hex="2014"/>
  <outline>
    <contour>
      <point x="880" y="357" type="line"/>
      <point x="880" y="230" type="line"/>
      <point x="26" y="230" type="line"/>
      <point x="26" y="357" type="line"/>
    </contour>
  </outline>
</glyph>
<glyph name="fraction" format="1">
  <advance width="560"/>
  <unicode hex="2044"/>
  <outline>
    <contour>
      <point x="26" y="-2" type="line"/>
      <point x="458" y="702" type="line"/>
      <point x="534" y="702" type="line"/>
      <point x="109" y="-2" type="line"/>
    </contour>
  </outline>
</glyph>
<glyph name="TradeMarkSign" format="1">
  <advance width="437"/>
  <unicode hex="2122"/>
  <outline>
    <contour>
      <point x="206" y="484" type="line"/>
      <point x="206" y="628" type="line"/>
      <point x="209" y="628" type="line"/>
      <point x="254" y="522" type="line"/>
      <point x="254" y="484" type="line"/>
    </contour>
    <contour>
      <point x="206" y="700" type="line"/>
      <point x="243" y="700" type="line"/>
      <point x="299" y="564" type="line"/>
      <point x="331" y="636" type="line"/>
      <point x="335" y="636" type="line"/>
      <point x="335" y="529" type="line"/>
      <point x="316" y="484" type="line"/>
      <point x="283" y="484" type="line"/>
      <point x="206" y="669" type="line"/>
    </contour>
    <contour>
      <point x="348" y="700" type="line"/>
      <point x="395" y="700" type="line"/>
      <point x="395" y="484" type="line"/>
      <point x="348" y="484" type="line"/>
    </contour>
    <contour>
      <point x="183" y="700" type="line"/>
      <point x="183" y="653" type="line"/>
      <point x="138" y="653" type="line"/>
      <point x="138" y="484" type="line"/>
      <point x="90" y="484" type="line"/>
      <point x="90" y="653" type="line"/>
      <point x="44" y="653" type="line"/>
      <point x="44" y="700" type="line"/>
    </contour>
  </outline>
</glyph>
<glyph name="fl" format="1">
  <advance width="483"/>
  <unicode hex="FB02"/>
  <outline>
    <contour>
      <point x="457" y="0" type="line"/>
      <point x="331" y="0" type="line"/>
      <point x="331" y="579" type="line"/>
      <point x="244" y="579" type="line" smooth="yes"/>
      <point x="216" y="578"/>
      <point x="211" y="555"/>
      <point x="211" y="552" type="curve" smooth="yes"/>
      <point x="211" y="515" type="line"/>
      <point x="277" y="516" type="line"/>
      <point x="277" y="400" type="line"/>
      <point x="211" y="400" type="line"/>
      <point x="211" y="0" type="line"/>
      <point x="89" y="0" type="line"/>
      <point x="89" y="400" type="line"/>
      <point x="26" y="400" type="line"/>
      <point x="26" y="516" type="line"/>
      <point x="89" y="516" type="line"/>
      <point x="89" y="552" type="line" smooth="yes"/>
      <point x="89" y="597"/>
      <point x="140" y="695"/>
      <point x="243" y="696" type="curve" smooth="yes"/>
      <point x="457" y="696" type="line"/>
    </contour>
  </outline>
</glyph>
